<svg id="Layer_1" data-name="Layer 1" xmlns="http://www.w3.org/2000/svg" xmlns:xlink="http://www.w3.org/1999/xlink" viewBox="0 0 250 90"><defs><style>.cls-1{fill:none;}.cls-2{clip-path:url(#clip-path);}.cls-3{fill:#f79421;}.cls-4{fill:#412312;}.cls-5{clip-path:url(#clip-path-3);}.cls-6{opacity:0.1;}.cls-7{clip-path:url(#clip-path-4);}.cls-8{fill:#010101;}.cls-9{clip-path:url(#clip-path-6);}.cls-10{clip-path:url(#clip-path-8);}.cls-11{clip-path:url(#clip-path-10);}.cls-12{opacity:0.5;}.cls-13{clip-path:url(#clip-path-12);}.cls-14{clip-path:url(#clip-path-13);}.cls-15{clip-path:url(#clip-path-14);}.cls-16{clip-path:url(#clip-path-15);}.cls-17{clip-path:url(#clip-path-16);}.cls-18{clip-path:url(#clip-path-18);}.cls-19{clip-path:url(#clip-path-19);}.cls-20{clip-path:url(#clip-path-20);}.cls-21{clip-path:url(#clip-path-22);}.cls-22{opacity:0.6;}.cls-23{clip-path:url(#clip-path-24);}.cls-24{fill:#5661aa;}.cls-25{clip-path:url(#clip-path-26);}.cls-26{fill:#7e5841;}.cls-27{opacity:0.2;}.cls-28{clip-path:url(#clip-path-28);}.cls-29{clip-path:url(#clip-path-29);}.cls-30{clip-path:url(#clip-path-30);}.cls-31{fill:#694e3f;}.cls-32{clip-path:url(#clip-path-32);}.cls-33{clip-path:url(#clip-path-33);}.cls-34{fill:#fff;}.cls-35{clip-path:url(#clip-path-34);}.cls-36{clip-path:url(#clip-path-36);}.cls-37{clip-path:url(#clip-path-37);}.cls-38{clip-path:url(#clip-path-38);}.cls-39{clip-path:url(#clip-path-40);}.cls-40{clip-path:url(#clip-path-41);}.cls-41{clip-path:url(#clip-path-42);}.cls-42{clip-path:url(#clip-path-43);}.cls-43{clip-path:url(#clip-path-44);}.cls-44{clip-path:url(#clip-path-45);}.cls-45{clip-path:url(#clip-path-46);}.cls-46{clip-path:url(#clip-path-47);}.cls-47{fill:#e51c43;}.cls-48{clip-path:url(#clip-path-48);}.cls-49{clip-path:url(#clip-path-49);}.cls-50{clip-path:url(#clip-path-50);}.cls-51{clip-path:url(#clip-path-51);}.cls-52{clip-path:url(#clip-path-52);}.cls-53{clip-path:url(#clip-path-53);}.cls-54{clip-path:url(#clip-path-54);}.cls-55{clip-path:url(#clip-path-55);}.cls-56{clip-path:url(#clip-path-56);}.cls-57{clip-path:url(#clip-path-57);}.cls-58{clip-path:url(#clip-path-58);}.cls-59{clip-path:url(#clip-path-59);}.cls-60{fill:#fc2;}.cls-61{clip-path:url(#clip-path-60);}.cls-62{clip-path:url(#clip-path-61);}.cls-63{fill:#faf9dd;}.cls-64{fill:#c8ca9f;}.cls-65{clip-path:url(#clip-path-62);}.cls-66{clip-path:url(#clip-path-63);}.cls-67{fill:#3a3b3a;}.cls-68{opacity:0.3;}.cls-69{clip-path:url(#clip-path-64);}.cls-70{fill:#e51c45;}.cls-71{clip-path:url(#clip-path-66);}.cls-72{fill:#334c7f;}.cls-73{fill:#dbbb26;}.cls-74{fill:#af2c24;}.cls-75{fill:#1b1916;}.cls-76{clip-path:url(#clip-path-68);}.cls-77{clip-path:url(#clip-path-70);}.cls-78{clip-path:url(#clip-path-72);}.cls-79{clip-path:url(#clip-path-73);}.cls-80{clip-path:url(#clip-path-74);}.cls-81{clip-path:url(#clip-path-76);}.cls-82{clip-path:url(#clip-path-77);}.cls-83{fill:#1d1d1b;}.cls-84{clip-path:url(#clip-path-78);}.cls-85{clip-path:url(#clip-path-80);}.cls-86{clip-path:url(#clip-path-81);}.cls-87{clip-path:url(#clip-path-82);}.cls-88{opacity:0.4;}.cls-89{clip-path:url(#clip-path-84);}.cls-90{clip-path:url(#clip-path-86);}.cls-91{clip-path:url(#clip-path-87);}.cls-92{clip-path:url(#clip-path-88);}.cls-93{fill:#851533;}.cls-94{clip-path:url(#clip-path-90);}.cls-95{clip-path:url(#clip-path-91);}.cls-96{fill:#9a1b38;}.cls-97{clip-path:url(#clip-path-92);}.cls-98{clip-path:url(#clip-path-93);}.cls-99{clip-path:url(#clip-path-94);}.cls-100{clip-path:url(#clip-path-95);}.cls-101{clip-path:url(#clip-path-96);}.cls-102{clip-path:url(#clip-path-98);}.cls-103{clip-path:url(#clip-path-100);}.cls-104{clip-path:url(#clip-path-102);}.cls-105{clip-path:url(#clip-path-103);}.cls-106{clip-path:url(#clip-path-104);}.cls-107{clip-path:url(#clip-path-105);}.cls-108{clip-path:url(#clip-path-106);}.cls-109{clip-path:url(#clip-path-107);}</style><clipPath id="clip-path"><rect class="cls-1" x="-11.49" y="4.78" width="271.29" height="73.68"/></clipPath><clipPath id="clip-path-3"><rect class="cls-1" x="-0.18" y="18.99" width="34.97" height="45.25"/></clipPath><clipPath id="clip-path-4"><rect class="cls-1" x="19.35" y="26.87" width="9.81" height="13.23"/></clipPath><clipPath id="clip-path-6"><rect class="cls-1" x="19.58" y="30.17" width="6.91" height="9.93"/></clipPath><clipPath id="clip-path-8"><rect class="cls-1" x="19.48" y="36.92" width="10.59" height="3.97"/></clipPath><clipPath id="clip-path-10"><rect class="cls-1" x="19.45" y="37.95" width="7.91" height="2.39"/></clipPath><clipPath id="clip-path-12"><rect class="cls-1" x="19.33" y="26.84" width="10.77" height="14.08"/></clipPath><clipPath id="clip-path-13"><rect class="cls-1" x="19.32" y="26.84" width="10.77" height="14.08"/></clipPath><clipPath id="clip-path-14"><rect class="cls-1" x="5.65" y="26.75" width="9.81" height="13.23"/></clipPath><clipPath id="clip-path-15"><rect class="cls-1" x="5.65" y="26.75" width="9.81" height="13.23"/></clipPath><clipPath id="clip-path-16"><rect class="cls-1" x="8.33" y="30.05" width="6.91" height="9.93"/></clipPath><clipPath id="clip-path-18"><rect class="cls-1" x="4.74" y="36.81" width="10.59" height="3.97"/></clipPath><clipPath id="clip-path-19"><rect class="cls-1" x="4.74" y="36.81" width="10.59" height="3.97"/></clipPath><clipPath id="clip-path-20"><rect class="cls-1" x="7.45" y="37.83" width="7.91" height="2.39"/></clipPath><clipPath id="clip-path-22"><rect class="cls-1" x="4.72" y="26.72" width="10.77" height="14.08"/></clipPath><clipPath id="clip-path-24"><rect class="cls-1" x="15.24" y="49.7" width="0.65" height="2.19"/></clipPath><clipPath id="clip-path-26"><rect class="cls-1" x="18.16" y="49.91" width="0.63" height="2.11"/></clipPath><clipPath id="clip-path-28"><rect class="cls-1" x="12.69" y="58.66" width="4.25" height="2.13"/></clipPath><clipPath id="clip-path-29"><rect class="cls-1" x="12.69" y="58.66" width="4.25" height="2.13"/></clipPath><clipPath id="clip-path-30"><rect class="cls-1" x="13.8" y="57.83" width="2.28" height="0.72"/></clipPath><clipPath id="clip-path-32"><rect class="cls-1" x="14.73" y="55.36" width="0.61" height="1.08"/></clipPath><clipPath id="clip-path-33"><rect class="cls-1" x="14.73" y="55.36" width="0.61" height="1.08"/></clipPath><clipPath id="clip-path-34"><rect class="cls-1" x="17.27" y="57.15" width="6.66" height="1.67"/></clipPath><clipPath id="clip-path-36"><rect class="cls-1" x="17.22" y="58.1" width="6.89" height="1.33"/></clipPath><clipPath id="clip-path-37"><rect class="cls-1" x="17.22" y="58.1" width="6.89" height="1.33"/></clipPath><clipPath id="clip-path-38"><rect class="cls-1" x="19.36" y="56.3" width="1.56" height="0.96"/></clipPath><clipPath id="clip-path-40"><rect class="cls-1" x="17.6" y="55.36" width="0.61" height="1.08"/></clipPath><clipPath id="clip-path-41"><rect class="cls-1" x="17.6" y="55.36" width="0.61" height="1.08"/></clipPath><clipPath id="clip-path-42"><rect class="cls-1" x="15.42" y="52.92" width="0.48" height="1.79"/></clipPath><clipPath id="clip-path-43"><rect class="cls-1" x="15.42" y="52.92" width="0.48" height="1.79"/></clipPath><clipPath id="clip-path-44"><rect class="cls-1" x="18.35" y="53.02" width="0.46" height="1.73"/></clipPath><clipPath id="clip-path-45"><rect class="cls-1" x="18.35" y="53.02" width="0.46" height="1.73"/></clipPath><clipPath id="clip-path-46"><rect class="cls-1" x="12.54" y="37.48" width="2.1" height="0.8"/></clipPath><clipPath id="clip-path-47"><rect class="cls-1" x="12.53" y="37.48" width="2.1" height="0.8"/></clipPath><clipPath id="clip-path-48"><rect class="cls-1" x="11.53" y="37.61" width="4.35" height="1.77"/></clipPath><clipPath id="clip-path-49"><rect class="cls-1" x="11.53" y="37.61" width="4.35" height="1.77"/></clipPath><clipPath id="clip-path-50"><rect class="cls-1" x="20.65" y="37.2" width="2.1" height="0.8"/></clipPath><clipPath id="clip-path-51"><rect class="cls-1" x="20.65" y="37.2" width="2.1" height="0.8"/></clipPath><clipPath id="clip-path-52"><rect class="cls-1" x="19.41" y="37.4" width="4.35" height="1.77"/></clipPath><clipPath id="clip-path-53"><rect class="cls-1" x="19.41" y="37.4" width="4.35" height="1.77"/></clipPath><clipPath id="clip-path-54"><rect class="cls-1" x="22.76" y="42.46" width="1.55" height="1.63"/></clipPath><clipPath id="clip-path-55"><rect class="cls-1" x="22.76" y="42.46" width="1.55" height="1.63"/></clipPath><clipPath id="clip-path-56"><rect class="cls-1" x="21.35" y="41.79" width="3.32" height="3.33"/></clipPath><clipPath id="clip-path-57"><rect class="cls-1" x="21.35" y="41.79" width="3.32" height="3.33"/></clipPath><clipPath id="clip-path-58"><rect class="cls-1" x="24.26" y="42.18" width="2.13" height="1.7"/></clipPath><clipPath id="clip-path-59"><rect class="cls-1" x="24.26" y="42.18" width="2.13" height="1.7"/></clipPath><clipPath id="clip-path-60"><rect class="cls-1" x="24.32" y="43.97" width="3.36" height="1.45"/></clipPath><clipPath id="clip-path-61"><rect class="cls-1" x="24.32" y="43.97" width="3.36" height="1.45"/></clipPath><clipPath id="clip-path-62"><rect class="cls-1" x="11.98" y="46.58" width="1.57" height="0.9"/></clipPath><clipPath id="clip-path-63"><rect class="cls-1" x="11.98" y="46.58" width="1.57" height="0.9"/></clipPath><clipPath id="clip-path-64"><rect class="cls-1" x="14.08" y="38.1" width="8.39" height="11.57"/></clipPath><clipPath id="clip-path-66"><rect class="cls-1" x="19.74" y="38.1" width="2.73" height="8.01"/></clipPath><clipPath id="clip-path-68"><rect class="cls-1" x="14.32" y="39.86" width="1.56" height="8.13"/></clipPath><clipPath id="clip-path-70"><rect class="cls-1" x="9.36" y="35.48" width="2.27" height="1.51"/></clipPath><clipPath id="clip-path-72"><rect class="cls-1" x="8.38" y="37.44" width="3.41" height="1.23"/></clipPath><clipPath id="clip-path-73"><rect class="cls-1" x="8.38" y="37.44" width="3.41" height="1.23"/></clipPath><clipPath id="clip-path-74"><rect class="cls-1" x="23.65" y="35.21" width="2.27" height="1.51"/></clipPath><clipPath id="clip-path-76"><rect class="cls-1" x="23.57" y="37.13" width="3.41" height="1.23"/></clipPath><clipPath id="clip-path-77"><rect class="cls-1" x="23.58" y="37.12" width="3.41" height="1.23"/></clipPath><clipPath id="clip-path-78"><rect class="cls-1" x="20.41" y="23.49" width="0.25" height="0.67"/></clipPath><clipPath id="clip-path-80"><rect class="cls-1" x="15.08" y="22.72" width="0.34" height="0.63"/></clipPath><clipPath id="clip-path-81"><rect class="cls-1" x="15.08" y="22.72" width="0.34" height="0.63"/></clipPath><clipPath id="clip-path-82"><rect class="cls-1" x="12.04" y="34.14" width="10.65" height="3.57"/></clipPath><clipPath id="clip-path-84"><rect class="cls-1" x="16.17" y="28.94" width="1.02" height="3.35"/></clipPath><clipPath id="clip-path-86"><rect class="cls-1" x="18.77" y="28.94" width="1.02" height="3.35"/></clipPath><clipPath id="clip-path-87"><rect class="cls-1" x="18.77" y="28.94" width="1.02" height="3.35"/></clipPath><clipPath id="clip-path-88"><rect class="cls-1" x="13.94" y="26.99" width="3.75" height="4.09"/></clipPath><clipPath id="clip-path-90"><rect class="cls-1" x="16.6" y="33.94" width="2.61" height="0.5"/></clipPath><clipPath id="clip-path-91"><rect class="cls-1" x="16.6" y="33.94" width="2.61" height="0.5"/></clipPath><clipPath id="clip-path-92"><rect class="cls-1" x="15.15" y="31.89" width="0.47" height="0.28"/></clipPath><clipPath id="clip-path-93"><rect class="cls-1" x="15.15" y="31.89" width="0.47" height="0.28"/></clipPath><clipPath id="clip-path-94"><rect class="cls-1" x="20.19" y="32.89" width="0.36" height="0.27"/></clipPath><clipPath id="clip-path-95"><rect class="cls-1" x="20.19" y="32.89" width="0.36" height="0.27"/></clipPath><clipPath id="clip-path-96"><rect class="cls-1" x="12.56" y="32.06" width="0.58" height="1.31"/></clipPath><clipPath id="clip-path-98"><rect class="cls-1" x="19.83" y="33.3" width="0.9" height="0.53"/></clipPath><clipPath id="clip-path-100"><rect class="cls-1" x="11.41" y="42.81" width="2.16" height="0.57"/></clipPath><clipPath id="clip-path-102"><rect class="cls-1" x="10.5" y="43.24" width="4.56" height="1.2"/></clipPath><clipPath id="clip-path-103"><rect class="cls-1" x="10.5" y="43.24" width="4.56" height="1.2"/></clipPath><clipPath id="clip-path-104"><rect class="cls-1" x="8.66" y="41.43" width="2.41" height="1.28"/></clipPath><clipPath id="clip-path-105"><rect class="cls-1" x="8.66" y="41.43" width="2.41" height="1.28"/></clipPath><clipPath id="clip-path-106"><rect class="cls-1" x="7.96" y="43.52" width="3.43" height="1"/></clipPath><clipPath id="clip-path-107"><rect class="cls-1" x="7.96" y="43.52" width="3.43" height="1"/></clipPath></defs><title>logo</title><g class="cls-2"><g class="cls-2"><path class="cls-3" d="M58.85,31.33a12.92,12.92,0,0,1,.88,5.92,14,14,0,0,1-2,6.35,12.65,12.65,0,0,1-6.24,5.25,16.48,16.48,0,0,1-4.59,1.68c0,.33,0,.69,0,1.07s0,.73,0,1,0,.63,0,.94,0,.57,0,.8V55a4,4,0,0,0,0,.58,1.07,1.07,0,0,1-.16.57,1.18,1.18,0,0,1-.42.44,1,1,0,0,1-.57.17,1.16,1.16,0,0,1-.84-.32,1.09,1.09,0,0,1-.35-.82c0-.18,0-.36,0-.54a5.53,5.53,0,0,1,0-.59v-.77c0-.29,0-.59,0-.9s0-.63,0-1,0-.7,0-1c-.38,0-.78,0-1.19,0a1.19,1.19,0,0,1-.78-.4,1.14,1.14,0,0,1,.11-1.63,1.19,1.19,0,0,1,.85-.27,5.24,5.24,0,0,0,1,0V47q0-1.68-.42-6.92-.34-3.94-.42-5.59c0-.84-.06-1.74-.12-2.71,0-.74-.1-1.41-.15-2a4.58,4.58,0,0,1-.07-.54A1.52,1.52,0,0,1,43.47,28a1,1,0,0,1,.44-.46,5.11,5.11,0,0,1,.78-.27l.42-.08A19.52,19.52,0,0,1,50,26.47a10.83,10.83,0,0,1,6.2,1.41,6.73,6.73,0,0,1,2.68,3.45m-1.46,5.73a10.67,10.67,0,0,0-.69-4.85,4.66,4.66,0,0,0-1.76-2.34A8.7,8.7,0,0,0,50,28.76a20.66,20.66,0,0,0-4.32.65v.16c.07.74.12,1.41.15,2,.08.9.13,1.83.15,2.8s.18,2.76.39,5.47q.45,5.36.45,7.11v1.19a14,14,0,0,0,3.56-1.38.29.29,0,0,1,.16,0,10.5,10.5,0,0,0,5.16-4.36,11.24,11.24,0,0,0,1.68-5.32"/><path class="cls-4" d="M65.65,41.5a.46.46,0,0,1,.23-.08,3.09,3.09,0,0,1,.69-1.72,3.87,3.87,0,0,1,2-1.22,4.87,4.87,0,0,1,2.49,0A6.5,6.5,0,0,1,74.68,41a9.85,9.85,0,0,1,1,1.68,9.9,9.9,0,0,0,1.5-1.1,1.09,1.09,0,0,1,.86-.31,1.11,1.11,0,0,1,.78.4,1.17,1.17,0,0,1,.29.84,1.07,1.07,0,0,1-.4.79,11,11,0,0,1-2.18,1.57,9.78,9.78,0,0,1-.23,5.39,9.67,9.67,0,0,1-3.41,4.63,10.32,10.32,0,0,1-3.52,1.72,7.53,7.53,0,0,1-2.25.34,6.85,6.85,0,0,1-4.06-1.14,6,6,0,0,1-2.49-3.37,6.38,6.38,0,0,1-.22-1.72,11.29,11.29,0,0,1,.55-3.56,9.88,9.88,0,0,1,1.24-2.64,10.68,10.68,0,0,1,1.61-1.76,8.37,8.37,0,0,1,1.28-1l.59-.31m.88,2.14a6.77,6.77,0,0,0-.89.61,12.46,12.46,0,0,0-1.25,1.23,6.35,6.35,0,0,0-1.24,2.22,8.56,8.56,0,0,0-.44,3.06,4.13,4.13,0,0,0,.15,1.11,3.49,3.49,0,0,0,1.49,2,4.54,4.54,0,0,0,2.76.77,6.36,6.36,0,0,0,1.64-.23,8.65,8.65,0,0,0,2.76-1.34,7.33,7.33,0,0,0,2.6-3.52,7,7,0,0,0,.27-3.75,9,9,0,0,1-1.88.27,7.62,7.62,0,0,1-3.33-.5A6,6,0,0,1,66.8,44a1.82,1.82,0,0,0-.27-.35m5.86.16a6.47,6.47,0,0,0,1.18-.2,6.93,6.93,0,0,0-.76-1.18,4.35,4.35,0,0,0-2.34-1.72,3,3,0,0,0-1.33,0,1.55,1.55,0,0,0-.77.46,1,1,0,0,0-.19.57,1.22,1.22,0,0,0,.38.73,3.55,3.55,0,0,0,1.49.95,5.07,5.07,0,0,0,2.34.39"/><path class="cls-4" d="M89.56,54.12a1.06,1.06,0,0,1,.84.29,1.25,1.25,0,0,1,.39.82,1.09,1.09,0,0,1-.1.44,1.62,1.62,0,0,1-.25.39,1,1,0,0,1-.36.26,1,1,0,0,1-.44.1s-.32,0-.8.15c-.29,0-.5.09-.64.1l-.63.09-.76.12c-.23,0-.45,0-.65,0a5.22,5.22,0,0,1-1.46,0,1.55,1.55,0,0,1-1.41-1.23,2.41,2.41,0,0,1-.15-.57c-.13-.59-.19-.89-.19-.92-.13-.71-.26-1.51-.39-2.41s-.19-1.59-.27-2.41c-.07-1-.14-2.43-.19-4.24C82,42.52,82,40.63,82,39.44c0-.23,0-.53,0-.9s0-.77,0-1.21,0-.88,0-1.36,0-.92.06-1.35,0-.83,0-1.19,0-.74,0-1.15a1.08,1.08,0,0,1,.17-.57,1.26,1.26,0,0,1,.44-.42,1,1,0,0,1,.58-.12,1,1,0,0,1,.82.37,1.21,1.21,0,0,1,.32.82c0,.25,0,.49,0,.71s0,.46,0,.74,0,.6,0,.94,0,.69,0,1,0,.7,0,1,0,.7,0,1,0,.61,0,.88v.71q0,2.3.12,5.58c0,1.86.11,3.25.19,4.17.05.69.12,1.44.23,2.26s.24,1.71.34,2.29c.08.36.14.64.19.84v0H86a22.64,22.64,0,0,0,2.41-.34,9.79,9.79,0,0,1,1.15-.16"/><path class="cls-4" d="M94.57,35.38a3,3,0,0,1,1.48.44,1.12,1.12,0,0,1,.55.8,2.15,2.15,0,0,1-.11.9,3.46,3.46,0,0,1-.37.77,1.81,1.81,0,0,1-.32.38,1.72,1.72,0,0,1-2.45-.57A1.91,1.91,0,0,1,93.08,36a1.36,1.36,0,0,1,1.49-.65m-.91,6a1.12,1.12,0,0,1,.09-.44,1,1,0,0,1,.27-.36,1.14,1.14,0,0,1,.38-.23,1.31,1.31,0,0,1,.44-.07,1,1,0,0,1,.82.36,1.19,1.19,0,0,1,.33.82,92.05,92.05,0,0,0,.3,14.19,1.35,1.35,0,0,1-.05.6,1,1,0,0,1-.35.47,1,1,0,0,1-.55.23,1.13,1.13,0,0,1-.88-.21A1.11,1.11,0,0,1,94,56a52.25,52.25,0,0,1-.38-6c-.05-2.59-.07-4.51,0-5.78s0-2.21.08-2.85"/><path class="cls-4" d="M107.16,37.14a1.68,1.68,0,0,0-1.47.46,4.58,4.58,0,0,0-1.15,1.49,17.86,17.86,0,0,0-.83,1.95,13.59,13.59,0,0,0-.49,1.61c-.08.36-.13.6-.15.73a2.12,2.12,0,0,1-.27.57q.72,7.35,1.18,11.51a1.11,1.11,0,0,1-.27.86,1.09,1.09,0,0,1-.78.42,1.12,1.12,0,0,1-.86-.24,1.07,1.07,0,0,1-.42-.77q-.77-7.38-1.65-16.14a1.18,1.18,0,0,1,.27-.84,1,1,0,0,1,.77-.42,1.08,1.08,0,0,1,1.11.53q2.17-4.66,5.47-4,3.63.73,5.31,6.51,1.57,5.24,1.3,14a1.08,1.08,0,0,1-.34.82,1.11,1.11,0,0,1-.84.31,1.17,1.17,0,0,1-.82-.37,1,1,0,0,1-.29-.8q.23-8.41-1.22-13.31-1.31-4.39-3.56-4.86"/><path class="cls-4" d="M119.36,35.38a2.94,2.94,0,0,1,1.47.44,1.14,1.14,0,0,1,.56.8,2.33,2.33,0,0,1-.12.9,3.07,3.07,0,0,1-.36.77,1.52,1.52,0,0,1-.33.38,1.71,1.71,0,0,1-2.44-.57,1.91,1.91,0,0,1-.27-2.07,1.36,1.36,0,0,1,1.49-.65m-.92,6a1,1,0,0,1,.1-.44,1,1,0,0,1,.27-.36,1.14,1.14,0,0,1,.38-.23,1.27,1.27,0,0,1,.44-.07,1.06,1.06,0,0,1,.82.36,1.19,1.19,0,0,1,.33.82,90.76,90.76,0,0,0,.3,14.19,1.22,1.22,0,0,1-.06.6.89.89,0,0,1-.34.47,1.07,1.07,0,0,1-.55.23,1.17,1.17,0,0,1-1.34-1,49.63,49.63,0,0,1-.39-6c-.05-2.59-.06-4.51,0-5.78s0-2.21.07-2.85"/><path class="cls-4" d="M136.31,37.94q-2.22.39-10.91,4.44a1,1,0,0,1-.87.06,1.12,1.12,0,0,1-.66-.6,1.14,1.14,0,0,1,0-.87,1,1,0,0,1,.57-.66q9.72-4.59,12.05-4.74c1.45-.07,2.22.5,2.29,1.72a4.28,4.28,0,0,1-.24,1.25,13.54,13.54,0,0,1-.54,1.35c-.19.41-.5,1-.94,1.84l-.61,1.15c-.53,1-1.47,2.59-2.79,4.7a29.6,29.6,0,0,0-3,5.44c-.29.91-.35,1.42-.2,1.53q1.16.57,6.35-1a1,1,0,0,1,.88.08,1.11,1.11,0,0,1,.56.68,1.13,1.13,0,0,1-.1.88,1.17,1.17,0,0,1-.69.58q-6.07,1.8-8.07.76a2.39,2.39,0,0,1-.93-.76,2.13,2.13,0,0,1-.39-1,4.65,4.65,0,0,1,0-1.12,8.76,8.76,0,0,1,.33-1.29,29.87,29.87,0,0,1,3.25-6c1.27-2.07,2.17-3.58,2.68-4.55.17-.31.38-.69.61-1.15.74-1.43,1.18-2.33,1.34-2.72"/><path class="cls-4" d="M155.51,41.58a1.17,1.17,0,1,1,2.33,0v3l.08.08,0,0a1.27,1.27,0,0,1,0,1.64l-.12.08c0,.69,0,1.39,0,2.1v.19a40,40,0,0,0,.15,4.13c0,.18.07.53.12,1a8.09,8.09,0,0,0,.5,2.75,1,1,0,0,1,0,.88,1.15,1.15,0,0,1-.61.67,1.08,1.08,0,0,1-.88,0,1.33,1.33,0,0,1-.67-.59,10.75,10.75,0,0,1-.72-3.6c0-.38,0-.61,0-.69a.47.47,0,0,1,0-.23,8.85,8.85,0,0,1-2.53,2,12,12,0,0,1-3.09.92,10.57,10.57,0,0,1-5.17-.42,6.5,6.5,0,0,1-3.86-3.33,6.43,6.43,0,0,1-.58-1.8,6,6,0,0,1,1.76-4.86,10.63,10.63,0,0,1,5.13-3.06,12.62,12.62,0,0,1,4.93-.38,11,11,0,0,1,3.18.92Zm0,7v-.12c0-.84,0-1.76,0-2.75A8.62,8.62,0,0,0,152,44.45a10.87,10.87,0,0,0-4,.3,8.39,8.39,0,0,0-4,2.41,3.57,3.57,0,0,0-1.14,3,3.68,3.68,0,0,0,2.87,3.25,8.46,8.46,0,0,0,4.05.34,10.14,10.14,0,0,0,2.45-.72,6.48,6.48,0,0,0,2.26-2,4.78,4.78,0,0,0,1.07-2.37"/><path class="cls-4" d="M178.23,56.42s0,0,0,0V55.21a1.12,1.12,0,0,0,0-.32,12.5,12.5,0,0,1-4.86,2A13.12,13.12,0,0,1,169,57a8.75,8.75,0,0,1-4.17-1.57q-3.63-2.67-3.09-8.64A9.58,9.58,0,0,1,164,41a7.64,7.64,0,0,1,5.24-2.52A8.4,8.4,0,0,1,175.9,41a14.13,14.13,0,0,1,1.64,1.92c0-1.43,0-2.85,0-4.25,0-3.59.18-6.81.46-9.64a1.21,1.21,0,0,1,.44-.76,1,1,0,0,1,.84-.25,1.17,1.17,0,0,1,.79.42,1.19,1.19,0,0,1,.27.86,84.59,84.59,0,0,0-.46,9.37,98.7,98.7,0,0,0,.3,10,53.34,53.34,0,0,1,.42,8,1.11,1.11,0,0,1-.4.78,1.05,1.05,0,0,1-.84.29,1.07,1.07,0,0,1-.78-.4,1.26,1.26,0,0,1-.31-.86m-.34-7.23a.36.36,0,0,1-.08-.23,13,13,0,0,0-3.52-6.27,6.16,6.16,0,0,0-4.86-1.84,5.45,5.45,0,0,0-3.71,1.76A7.63,7.63,0,0,0,164,47.05q-.42,4.62,2.18,6.54a6.67,6.67,0,0,0,3.1,1.15,11,11,0,0,0,3.63-.16,11.39,11.39,0,0,0,2.4-.67,7.66,7.66,0,0,0,1.81-1,2.22,2.22,0,0,0,.88-1.09.43.43,0,0,1,.08-.23c-.05-.77-.12-1.57-.19-2.41"/><path class="cls-4" d="M189.06,41.5a.4.4,0,0,1,.23-.08A3.15,3.15,0,0,1,190,39.7a3.85,3.85,0,0,1,2-1.22,4.83,4.83,0,0,1,2.48,0,6.5,6.5,0,0,1,3.67,2.6,9.91,9.91,0,0,1,1,1.68,9.83,9.83,0,0,0,1.49-1.1,1.09,1.09,0,0,1,.86-.31,1.11,1.11,0,0,1,.78.4,1.17,1.17,0,0,1,.29.84,1,1,0,0,1-.4.79A11,11,0,0,1,200,44.91a9.55,9.55,0,0,1-3.64,10,10.27,10.27,0,0,1-3.51,1.72,7.6,7.6,0,0,1-2.26.34,6.87,6.87,0,0,1-4.06-1.14,6,6,0,0,1-2.71-5.09,11.29,11.29,0,0,1,.55-3.56,10.2,10.2,0,0,1,1.24-2.64,10.68,10.68,0,0,1,1.61-1.76,8.37,8.37,0,0,1,1.28-1l.6-.31m.88,2.14a7.55,7.55,0,0,0-.9.61,12.46,12.46,0,0,0-1.25,1.23,6.35,6.35,0,0,0-1.24,2.22,8.79,8.79,0,0,0-.44,3.06,4.13,4.13,0,0,0,.15,1.11,3.47,3.47,0,0,0,1.5,2,4.51,4.51,0,0,0,2.75.77,6.3,6.3,0,0,0,1.64-.23,8.65,8.65,0,0,0,2.76-1.34,7.27,7.27,0,0,0,2.6-3.52,7,7,0,0,0,.27-3.75,8.88,8.88,0,0,1-1.88.27,7.55,7.55,0,0,1-3.32-.5A6.14,6.14,0,0,1,190.2,44a1.77,1.77,0,0,0-.26-.35m5.85.16a6.58,6.58,0,0,0,1.19-.2,7,7,0,0,0-.77-1.18,4.36,4.36,0,0,0-2.33-1.72,3,3,0,0,0-1.34,0,1.59,1.59,0,0,0-.77.46,1,1,0,0,0-.19.57,1.22,1.22,0,0,0,.38.73,3.53,3.53,0,0,0,1.5.95,5,5,0,0,0,2.33.39"/><path class="cls-4" d="M207.88,36.68c0,.13.06.73.11,1.8A9.68,9.68,0,0,1,210.71,37a6.49,6.49,0,0,1,1.24-.25,5,5,0,0,1,1,0,2.86,2.86,0,0,1,.79.19,3.7,3.7,0,0,1,.57.29,2,2,0,0,1,.38.32,1.73,1.73,0,0,1,.21.25.47.47,0,0,1,.08.14,1,1,0,0,1,.14.86,1.13,1.13,0,0,1-.54.7,1.16,1.16,0,0,1-.88.12,1.06,1.06,0,0,1-.71-.54c-.1-.2-.62-.15-1.57.16a7.57,7.57,0,0,0-3.29,2.29q0,1.16-.15,3.33c-.08,1-.11,1.77-.11,2.18,0,.59,0,1.64.07,3.17q.15,3.06.27,5.67a1.11,1.11,0,0,1-.09.61,1.15,1.15,0,0,1-.41.44,1.08,1.08,0,0,1-.57.17,1,1,0,0,1-.84-.29,1.14,1.14,0,0,1-.38-.78c-.11-1.63-.2-3.55-.27-5.74-.08-1.66-.12-2.74-.12-3.25s0-1.21.12-2.33a36.23,36.23,0,0,0,.15-4.29q-.12-2.22-.27-3.48a1.1,1.1,0,0,1,.1-.59,1.15,1.15,0,0,1,.38-.46,1.13,1.13,0,0,1,.56-.21,1,1,0,0,1,.86.23,1.3,1.3,0,0,1,.44.8"/><path class="cls-4" d="M215.57,46.78a1.15,1.15,0,0,1-.69-.57,1.09,1.09,0,0,1-.1-.88,1.11,1.11,0,0,1,.54-.69,1.2,1.2,0,0,1,.9-.12l.11,0a13,13,0,0,1,.23-1.41,4.84,4.84,0,0,1,2.37-2.95,10.69,10.69,0,0,1,4.21-1.53,8.21,8.21,0,0,1,5.81,1,6.68,6.68,0,0,1,3,4.63,1,1,0,0,1-.54,1.22,15,15,0,0,1-6.35,1.87,27.51,27.51,0,0,1-6.54,0,11.35,11.35,0,0,0,.42,2.83,6.36,6.36,0,0,0,1.72,3.1,6.77,6.77,0,0,0,3.52,1.49,4.12,4.12,0,0,0,2.34-.34,6.35,6.35,0,0,0,2.33-1.65,1,1,0,0,1,.78-.4,1.18,1.18,0,0,1,.85.31,1.13,1.13,0,0,1,.38.8,1.17,1.17,0,0,1-.29.83,8.9,8.9,0,0,1-3.17,2.25,6.31,6.31,0,0,1-3.6.5,9,9,0,0,1-4.74-2.1,8.75,8.75,0,0,1-2.34-4.14,14.08,14.08,0,0,1-.53-3.71v-.19l-.61-.15m3.27-3.16c-.09.48-.18.94-.25,1.4a24.17,24.17,0,0,0,6.19,0,16.23,16.23,0,0,0,4.67-1.15,4.26,4.26,0,0,0-1.76-2.33,5.86,5.86,0,0,0-4.21-.61,8,8,0,0,0-3.29,1.18q-1.22.76-1.35,1.47"/><path class="cls-4" d="M240.51,57.07a7.43,7.43,0,0,1-2.38-.15,5.6,5.6,0,0,1-1.43-.48,2.69,2.69,0,0,1-.44-.33,1,1,0,0,1-.42-.78,1.05,1.05,0,0,1,.29-.84,1.13,1.13,0,0,1,.8-.4,1,1,0,0,1,.82.26,3.68,3.68,0,0,0,2.6.42.54.54,0,0,0,.31-.11.8.8,0,0,0,.15-.27,2.06,2.06,0,0,0,0-.72A4.28,4.28,0,0,0,239.7,51l-.23-.23a.1.1,0,0,0,0-.08c-.48-.51-.87-1-1.18-1.32s-.74-.92-1.3-1.64a9.94,9.94,0,0,1-1.3-2.15,19.32,19.32,0,0,1-.84-2.31,7.62,7.62,0,0,1-.31-2.68,8.91,8.91,0,0,1,.61-2.79,7.4,7.4,0,0,1,2.76-3.44A8.08,8.08,0,0,1,242.23,33a6.25,6.25,0,0,1,4.63,1.41,5.13,5.13,0,0,1,1.53,2.8,6.5,6.5,0,0,1-.19,3.17,8.31,8.31,0,0,1-1.48,2.76,7.77,7.77,0,0,1-2.43,2,1.17,1.17,0,0,1-1.58-.49,1.17,1.17,0,0,1-.08-.88,1.09,1.09,0,0,1,.55-.69,5.36,5.36,0,0,0,2.8-3.37,4.43,4.43,0,0,0,.11-2.06,2.48,2.48,0,0,0-.8-1.53,4,4,0,0,0-2.95-.85,6.17,6.17,0,0,0-3.17,1,5,5,0,0,0-1.88,2.41,5.36,5.36,0,0,0-.42,1.86,7.84,7.84,0,0,0,.12,1.79,7.72,7.72,0,0,0,.55,1.74,12.18,12.18,0,0,0,.8,1.55c.27.42.6.9,1,1.42s.71.91.94,1.16.51.57.84.92a.09.09,0,0,0,.07,0l.23.27a7.06,7.06,0,0,1,1.19,1.87,6.47,6.47,0,0,1,.57,2.18A4.42,4.42,0,0,1,243,55a3.09,3.09,0,0,1-.8,1.41,2.83,2.83,0,0,1-1.72.69"/></g><g class="cls-5"><g class="cls-6"><g class="cls-7"><g class="cls-7"><path class="cls-8" d="M28.6,27c-1.79-1.07-8.25,3.94-9.2,11.24S32.06,29.1,28.6,27"/></g></g></g><g class="cls-6"><g class="cls-9"><g class="cls-9"><path class="cls-8" d="M26.35,30.36c-.7-1.06-4.81,2.32-6.56,8.15s7.93-6.08,6.56-8.15"/></g></g></g><g class="cls-6"><g class="cls-10"><g class="cls-10"><path class="cls-8" d="M30.06,38.59c-.19-1.55-5.56-2.86-9.8.12s10.17,2.89,9.8-.12"/></g></g></g><g class="cls-6"><g class="cls-11"><g class="cls-11"><path class="cls-8" d="M27.35,38.91c.26-.92-3.26-1.66-7.06.15s6.56,1.64,7.06-.15"/></g></g></g><g class="cls-12"><g class="cls-13"><g class="cls-14"><path class="cls-8" d="M20.12,40.13a.78.78,0,0,1-.22,0c-.49-.13-.67-.76-.53-1.86a15.53,15.53,0,0,1,2.9-7.1,12.75,12.75,0,0,1,4.32-3.91,2.26,2.26,0,0,1,2-.24c.77.47.77,1.67,0,3.49-1.65,3.83-6.55,9.65-8.49,9.65M28,26.9a3.47,3.47,0,0,0-1.39.38,12.92,12.92,0,0,0-4.3,3.89,15.61,15.61,0,0,0-2.88,7.08c-.14,1.07,0,1.67.49,1.8.78.21,2.38-.94,4.29-3.09a26.68,26.68,0,0,0,4.34-6.51c.54-1.24,1-2.84,0-3.41A1,1,0,0,0,28,26.9"/><path class="cls-8" d="M19.9,40.13a.31.31,0,0,1-.17,0c-.25-.14-.24-.68,0-1.59a18.23,18.23,0,0,1,3.06-6,6.38,6.38,0,0,1,3-2.4.54.54,0,0,1,.57.2c.49.75-.47,2.64-1.09,3.7a26.63,26.63,0,0,1-3.4,4.59c-.55.58-1.48,1.49-2,1.49M26,30.2h-.13a6.28,6.28,0,0,0-2.95,2.37,17.79,17.79,0,0,0-3.05,5.94c-.33,1.09-.21,1.43-.06,1.52.31.18,1.07-.35,2.09-1.44,2.34-2.5,5.26-7,4.48-8.22A.43.43,0,0,0,26,30.2"/><polygon class="cls-8" points="19.74 40.06 19.69 40.03 23.39 34.12 23.39 34.12 29.09 28.76 29.13 28.8 23.43 34.16 19.74 40.06"/><polygon class="cls-8" points="25.79 31.93 25.73 31.93 26.11 27.5 26.17 27.51 25.79 31.93"/><polygon class="cls-8" points="25.98 29.81 25.94 29.77 28.9 27.28 28.93 27.33 25.98 29.81"/><polygon class="cls-8" points="23.38 34.15 22.86 30.38 22.92 30.38 23.44 34.14 23.38 34.15"/><polygon class="cls-8" points="23.12 31.87 23.07 31.84 24.52 28.66 24.57 28.68 23.12 31.87"/><polygon class="cls-8" points="22.26 36.01 22.25 35.96 24.76 35.52 26.94 33.39 26.98 33.43 24.79 35.57 22.26 36.01"/><rect class="cls-8" x="24.85" y="35.53" width="0.06" height="0.6" transform="translate(-10.35 10.11) rotate(-19.09)"/><polygon class="cls-8" points="22.78 35.14 21.41 34.3 21.67 32.03 21.72 32.04 21.47 34.27 22.81 35.09 22.78 35.14"/><polygon class="cls-8" points="20.3 34.84 20.27 34.79 21.43 34.26 21.45 34.32 20.3 34.84"/><path class="cls-8" d="M23.54,40.92c-2,0-3.71-.32-4-1-.18-.36.07-.78.74-1.25A9.93,9.93,0,0,1,25,36.94a8.15,8.15,0,0,1,3.87.5c.71.32,1.13.72,1.18,1.15.09.72-.64,1.34-2.13,1.77a16.45,16.45,0,0,1-4.42.56M26,37c-.3,0-.6,0-.9,0a9.94,9.94,0,0,0-4.77,1.74c-.64.45-.88.85-.72,1.18.25.51,1.48.87,3.3.94A17.27,17.27,0,0,0,28,40.31c1.83-.54,2.14-1.23,2.08-1.71s-.46-.8-1.15-1.11A7.44,7.44,0,0,0,26,37"/><path class="cls-8" d="M21.93,40.37h-.49c-1.72-.06-2-.41-2-.56s.24-.48.85-.77a11,11,0,0,1,4.34-1.1,4.25,4.25,0,0,1,2.57.51.47.47,0,0,1,.19.48c-.27.94-3.2,1.45-5.45,1.45m3-2.39a11,11,0,0,0-4.6,1.1c-.72.35-.84.58-.81.71s.78.47,2,.51a16.73,16.73,0,0,0,3.69-.3c1.29-.27,2.07-.66,2.19-1.09a.39.39,0,0,0-.17-.42A3.84,3.84,0,0,0,24.9,38"/><polygon class="cls-8" points="19.46 39.84 19.45 39.78 24.14 39.05 25.9 36.91 25.94 36.94 24.17 39.1 24.16 39.11 19.46 39.84"/><polygon class="cls-8" points="26.48 40.01 26.48 40 24.14 39.1 24.16 39.05 26.48 39.95 30.05 38.56 30.07 38.62 26.48 40.01"/><polygon class="cls-8" points="27.09 40.57 26.46 40 26.5 39.96 27.13 40.53 27.09 40.57"/><polygon class="cls-8" points="24.96 40.88 23.63 40.5 22.23 39.4 22.27 39.35 23.66 40.45 24.98 40.83 24.96 40.88"/><rect class="cls-8" x="23.15" y="40.66" width="0.59" height="0.06" transform="translate(-21.9 28.49) rotate(-45)"/><polygon class="cls-8" points="24.74 38.4 24.73 38.34 27.67 38.07 27.94 37.15 28 37.17 27.71 38.13 24.74 38.4"/><polygon class="cls-8" points="29.88 38.2 27.69 38.13 27.69 38.07 29.89 38.15 29.88 38.2"/><polygon class="cls-8" points="21.27 39.55 21.25 39.5 23.2 38.57 23.38 37.25 23.44 37.26 23.26 38.61 21.27 39.55"/><polygon class="cls-8" points="23.24 38.62 23.22 38.56 25.09 37.91 25.11 37.96 23.24 38.62"/></g></g></g><g class="cls-6"><g class="cls-15"><g class="cls-16"><path class="cls-8" d="M6.22,26.9c1.78-1.08,8.24,3.93,9.19,11.23S2.76,29,6.22,26.9"/></g></g></g><g class="cls-6"><g class="cls-17"><g class="cls-17"><path class="cls-8" d="M8.46,30.25c.71-1.07,4.82,2.31,6.56,8.14s-7.93-6.08-6.56-8.14"/></g></g></g><g class="cls-6"><g class="cls-18"><g class="cls-19"><path class="cls-8" d="M4.75,38.47c.19-1.54,5.56-2.86,9.8.12s-10.17,2.89-9.8-.12"/></g></g></g><g class="cls-6"><g class="cls-20"><g class="cls-20"><path class="cls-8" d="M7.46,38.8c-.26-.93,3.26-1.67,7.06.14S8,40.58,7.46,38.8"/></g></g></g><g class="cls-12"><g class="cls-21"><g class="cls-21"><path class="cls-8" d="M14.7,40c-1.94,0-6.85-5.81-8.49-9.65-.78-1.82-.78-3,0-3.49l0,0,0,0a2.27,2.27,0,0,1,2,.25A12.84,12.84,0,0,1,12.55,31a15.74,15.74,0,0,1,2.89,7.11c.14,1.1,0,1.72-.53,1.86a.71.71,0,0,1-.21,0M6.81,26.78a1.16,1.16,0,0,0-.58.14c-.94.57-.5,2.17,0,3.42a26.64,26.64,0,0,0,4.34,6.5c1.91,2.15,3.52,3.3,4.3,3.09.46-.12.62-.73.48-1.8a15.45,15.45,0,0,0-2.88-7.07,12.63,12.63,0,0,0-4.3-3.89,3.31,3.31,0,0,0-1.39-.39"/><path class="cls-8" d="M14.92,40c-.51,0-1.45-.91-2-1.49a28.05,28.05,0,0,1-3.4-4.58c-.61-1.06-1.58-3-1.08-3.71l0,0,0,0A.52.52,0,0,1,9,30a6.38,6.38,0,0,1,3,2.4,17.86,17.86,0,0,1,3.06,6c.27.91.28,1.45,0,1.59a.29.29,0,0,1-.16,0M8.87,30.08a.42.42,0,0,0-.38.18C7.71,31.44,10.62,36,13,38.48c1,1.09,1.79,1.62,2.09,1.44s.28-.42-.05-1.52a17.94,17.94,0,0,0-3.06-5.93A6.27,6.27,0,0,0,9,30.09H8.87"/><polygon class="cls-8" points="15.08 39.94 11.38 34.04 5.68 28.68 5.72 28.64 11.43 34.01 11.43 34.01 15.13 39.91 15.08 39.94"/><polygon class="cls-8" points="9.03 31.82 8.64 27.39 8.7 27.39 9.08 31.81 9.03 31.82"/><polygon class="cls-8" points="8.84 29.69 5.88 27.21 5.92 27.17 8.87 29.65 8.84 29.69"/><polygon class="cls-8" points="11.43 34.03 11.38 34.02 11.89 30.26 11.95 30.27 11.43 34.03"/><polygon class="cls-8" points="11.69 31.75 10.24 28.57 10.3 28.54 11.74 31.73 11.69 31.75"/><polygon class="cls-8" points="12.56 35.9 10.02 35.45 7.84 33.31 7.88 33.27 10.05 35.4 12.57 35.84 12.56 35.9"/><rect class="cls-8" x="9.64" y="35.68" width="0.6" height="0.06" transform="translate(-27.06 33.5) rotate(-71.03)"/><polygon class="cls-8" points="12.03 35.02 12 34.97 13.35 34.16 13.09 31.92 13.15 31.91 13.4 34.19 12.03 35.02"/><polygon class="cls-8" points="14.52 34.72 13.36 34.2 13.39 34.15 14.54 34.67 14.52 34.72"/><path class="cls-8" d="M11.27,40.8a16.93,16.93,0,0,1-4.42-.55c-1.48-.44-2.22-1-2.13-1.78.06-.42.48-.83,1.19-1.15a8.11,8.11,0,0,1,3.86-.5,9.89,9.89,0,0,1,4.8,1.75c.66.46.91.88.74,1.25-.33.66-2.07,1-4,1m-2.41-4a7.3,7.3,0,0,0-2.93.54c-.69.3-1.1.7-1.15,1.1S5,39.65,6.86,40.19a16.94,16.94,0,0,0,5.09.54c1.82-.07,3.05-.42,3.3-.94.16-.33-.08-.73-.72-1.18a9.91,9.91,0,0,0-4.76-1.73c-.31,0-.61,0-.91,0"/><path class="cls-8" d="M12.88,40.25c-2.25,0-5.18-.51-5.44-1.45a.43.43,0,0,1,.19-.47,4.2,4.2,0,0,1,2.56-.52,10.9,10.9,0,0,1,4.35,1.11c.6.28.89.54.84.77s-.28.49-2,.55h-.49m-3-2.39a4,4,0,0,0-2.26.51.4.4,0,0,0-.17.42c.12.44.91.83,2.2,1.09a16.69,16.69,0,0,0,3.68.3c1.17,0,1.9-.23,2-.5s-.09-.37-.82-.71a10.81,10.81,0,0,0-4.59-1.11"/><polygon class="cls-8" points="15.36 39.72 10.64 38.99 8.87 36.83 8.91 36.79 10.68 38.94 15.37 39.66 15.36 39.72"/><polygon class="cls-8" points="8.33 39.89 4.74 38.5 4.76 38.45 8.33 39.83 10.65 38.94 10.67 38.99 8.33 39.89"/><polygon class="cls-8" points="7.72 40.45 7.69 40.41 8.31 39.84 8.35 39.88 7.72 40.45"/><polygon class="cls-8" points="9.85 40.77 9.83 40.71 11.15 40.33 12.54 39.23 12.58 39.28 11.18 40.38 9.85 40.77"/><rect class="cls-8" x="11.35" y="40.27" width="0.06" height="0.59" transform="translate(-25.33 19.89) rotate(-44.94)"/><polygon class="cls-8" points="10.08 38.28 7.1 38.01 6.82 37.05 6.87 37.03 7.15 37.96 10.08 38.23 10.08 38.28"/><polygon class="cls-8" points="4.93 38.09 4.93 38.03 7.12 37.95 7.13 38.01 4.93 38.09"/><polygon class="cls-8" points="13.54 39.44 11.56 38.49 11.38 37.14 11.43 37.13 11.61 38.46 13.56 39.38 13.54 39.44"/><polygon class="cls-8" points="11.57 38.5 9.71 37.84 9.73 37.79 11.59 38.45 11.57 38.5"/></g></g></g><path class="cls-8" d="M15.93,52.55a1.83,1.83,0,0,1-.92-1.8c.05-1,.69-2.11,1.2-2.11a2.12,2.12,0,0,1,1.38,2.1c-.07,1.06-.68,1.93-1.66,1.81"/><g class="cls-22"><g class="cls-23"><g class="cls-23"><path class="cls-24" d="M15.8,49.7c-.14-.1-.65.75-.55,1.26s.16.92.34.92-.12-.84-.07-1.2.57-.75.28-1"/></g></g></g><path class="cls-8" d="M18.84,52.66a1.75,1.75,0,0,1-.9-1.74c0-1,.67-2,1.16-2a2,2,0,0,1,1.34,2c-.07,1-.66,1.87-1.6,1.75"/><g class="cls-22"><g class="cls-25"><g class="cls-25"><path class="cls-24" d="M18.71,49.91c-.14-.1-.63.73-.54,1.22s.16.89.33.89-.11-.81-.06-1.17.55-.72.27-.94"/></g></g></g><path class="cls-26" d="M15.79,55.84c.58,0,1.15,0,1.13.66s-.05,1.85-.05,2.31.2,1.38,0,1.7a2.55,2.55,0,0,1-2,.84A2.1,2.1,0,0,1,12.68,60a2.67,2.67,0,0,1,.78-2.21c.45-.44,1.13-1,1.19-1.31s-.17-.77,1.14-.68"/><path class="cls-8" d="M14.89,61.44H14.8a2.17,2.17,0,0,1-2.21-1.38,2.8,2.8,0,0,1,.81-2.29l.35-.33c.36-.33.77-.7.81-.94,0,0,0-.1,0-.15a.54.54,0,0,1,.15-.44,1.51,1.51,0,0,1,1.06-.16l.23,0c.49,0,1,0,1,.73,0,.17,0,.36,0,.56,0,.65,0,1.4,0,1.74,0,.12,0,.27,0,.44a2.21,2.21,0,0,1-.1,1.32,2.62,2.62,0,0,1-2,.88m.55-5.52a.89.89,0,0,0-.59.13.38.38,0,0,0-.09.3c0,.06,0,.13,0,.19-.06.29-.45.65-.87,1-.12.11-.24.21-.34.32A2.56,2.56,0,0,0,12.77,60a2,2,0,0,0,2,1.24,2.44,2.44,0,0,0,2-.8,2.33,2.33,0,0,0,.06-1.21,3.75,3.75,0,0,1,0-.44c0-.35,0-1.1,0-1.76,0-.2,0-.39,0-.55,0-.49-.27-.53-.82-.55l-.23,0h-.34"/><g class="cls-27"><g class="cls-28"><g class="cls-29"><path class="cls-8" d="M12.9,58.66a1,1,0,0,0,.16.78,2.1,2.1,0,0,0,1.55.93c.79,0,2.13-.54,2.27-1.25l.07.56s-.37,1.27-2.47,1.09-1.91-1.89-1.58-2.11"/></g></g></g><path class="cls-8" d="M14.73,60.86a2.11,2.11,0,0,1-2.16-1.46h.18a1.92,1.92,0,0,0,2,1.29c1.27,0,2-.4,2.11-1.19l.18,0c-.1.61-.59,1.34-2.29,1.34"/><g class="cls-27"><g class="cls-30"><g class="cls-30"><path class="cls-8" d="M13.8,58.31a1.41,1.41,0,0,1,2.28.24,2.35,2.35,0,0,0-2.28-.24"/></g></g></g><path class="cls-8" d="M13.57,58.45a2.19,2.19,0,0,1,2.95.36c-1-.51-1.87-.92-2.95-.36"/><path class="cls-26" d="M15.84,55.29c.38,0,1.08.18,1.08.71s-.79.76-1.22.75a1,1,0,0,1-1-.92c0-.55.66-.55,1.1-.54"/><path class="cls-31" d="M16.35,55.38a.68.68,0,0,1,.23.64c-.09.38-.82.64-1.58.46a1.42,1.42,0,0,0,1.6.06c.9-.52-.07-1.29-.25-1.16"/><g class="cls-6"><g class="cls-32"><g class="cls-33"><path class="cls-34" d="M15.09,55.37s-.24.36,0,.55.47.74-.2.43a.62.62,0,0,1,.2-1"/></g></g></g><path class="cls-8" d="M15.72,56.84h0a1.18,1.18,0,0,1-.79-.36.89.89,0,0,1-.26-.65c0-.65.78-.64,1.19-.63S17,55.43,17,56a.62.62,0,0,1-.2.45,1.68,1.68,0,0,1-1.09.39m0-1.46c-.46,0-.87.06-.88.45a.7.7,0,0,0,.21.52,1,1,0,0,0,.66.31,1.49,1.49,0,0,0,1-.33.46.46,0,0,0,.15-.33c0-.49-.73-.62-1-.62h-.13"/><path class="cls-26" d="M20.2,56.66a1.78,1.78,0,0,0,1,.23,3,3,0,0,1,1.75,0c.79.27,1.21.68,1.08,1.41,0,0,.25.08,0,.44a2.5,2.5,0,0,1-2.19,1A11.33,11.33,0,0,1,17.71,59c-.59-.37-.57-.76-.42-.87s-.38-1.37.72-1.79a2.37,2.37,0,0,1,2.19.35"/><g class="cls-27"><g class="cls-35"><g class="cls-35"><path class="cls-8" d="M23.44,57.15s.43.27-.09.57a4.08,4.08,0,0,1-3,.58c-1.79-.19-2.69-.21-3-.7,0,0-.27.68,1.52.87,1.47.16,2.83.55,3.8.22.24-.09,2.23-.81.84-1.54"/></g></g></g><path class="cls-8" d="M21.78,59.77a11.64,11.64,0,0,1-4.12-.72c-.47-.3-.55-.59-.55-.73a.39.39,0,0,1,.08-.25c-.06-.26-.24-1.45.79-1.84a2.34,2.34,0,0,1,2.16.29l.11.06a1.56,1.56,0,0,0,.91.22l.17,0a2.79,2.79,0,0,1,1.62,0c.55.2,1.27.55,1.15,1.45a.33.33,0,0,1,.09.13.45.45,0,0,1-.09.41,2.61,2.61,0,0,1-2.26,1h-.06m-3-3.51a1.89,1.89,0,0,0-.74.14c-1,.38-.67,1.67-.67,1.68l0,.06-.05,0s-.05.06-.05.13.05.32.47.59a11.61,11.61,0,0,0,4,.69h.06A2.39,2.39,0,0,0,24,58.65c.09-.15.09-.23.08-.26a.1.1,0,0,0-.05,0l-.08,0,0-.07c.11-.64-.2-1-1-1.32a2.64,2.64,0,0,0-1.52,0,.74.74,0,0,1-.18,0,1.71,1.71,0,0,1-1-.23l-.11-.07a2.43,2.43,0,0,0-1.27-.41"/><path class="cls-8" d="M21.3,56.89a3.77,3.77,0,0,1-1.36.37,1.68,1.68,0,0,1,.65-.3,2.41,2.41,0,0,1,.71-.07"/><g class="cls-27"><g class="cls-36"><g class="cls-37"><path class="cls-8" d="M17.22,58.24a1.34,1.34,0,0,0,.87.71,10.1,10.1,0,0,0,1.8.14,6.79,6.79,0,0,0,1.75.34,4.75,4.75,0,0,0,2.43-.83l0-.32-.11,0a3.62,3.62,0,0,1-1.4.79,7.14,7.14,0,0,1-2.66-.16c-.57-.11-1.33.11-1.82-.15a3.72,3.72,0,0,1-.83-.63Z"/></g></g></g><path class="cls-8" d="M21.6,59.27a3.55,3.55,0,0,1-1-.17,4.4,4.4,0,0,0-.47-.1,4.6,4.6,0,0,0-.74,0c-.19,0-.43,0-.76,0a2,2,0,0,1-1.39-.77l.14-.11a1.88,1.88,0,0,0,1.26.7c.33,0,.56,0,.75,0a6.78,6.78,0,0,1,.77,0,4.15,4.15,0,0,1,.48.11,3.33,3.33,0,0,0,1.16.15A3.5,3.5,0,0,0,24,58.17l.14.11a3.63,3.63,0,0,1-2.31,1h-.2"/><g class="cls-27"><g class="cls-38"><g class="cls-38"><path class="cls-8" d="M19.94,57.26s.57-.32-.58-1a2.77,2.77,0,0,1,.7.27,2.53,2.53,0,0,0,.86.33,3,3,0,0,1-1,.36"/></g></g></g><path class="cls-26" d="M18.72,55.29c.38,0,1.08.18,1.08.71s-.79.76-1.22.75a1,1,0,0,1-1-.92c0-.55.66-.55,1.1-.54"/><path class="cls-31" d="M19.22,55.38a.68.68,0,0,1,.24.64c-.09.38-.82.64-1.58.46a1.42,1.42,0,0,0,1.6.06c.9-.52-.07-1.29-.26-1.16"/><g class="cls-6"><g class="cls-39"><g class="cls-40"><path class="cls-34" d="M18,55.37s-.24.36,0,.55.47.74-.2.43a.62.62,0,0,1,.2-1"/></g></g></g><path class="cls-8" d="M18.6,56.84h0a1.18,1.18,0,0,1-.79-.36.89.89,0,0,1-.26-.65c0-.65.78-.64,1.19-.63s1.17.23,1.17.8a.62.62,0,0,1-.2.45,1.68,1.68,0,0,1-1.09.39m0-1.46c-.46,0-.87.06-.88.45a.7.7,0,0,0,.21.52.93.93,0,0,0,.66.31,1.51,1.51,0,0,0,1-.33.46.46,0,0,0,.15-.33c0-.49-.73-.62-1-.62h-.13"/><path class="cls-8" d="M15.68,55.88c-.39-.11-.4-1.72-.37-2.32s.3-1.33.79-1.32.69.8.63,1.46-.58,2.32-1.05,2.18"/><g class="cls-22"><g class="cls-41"><g class="cls-42"><path class="cls-24" d="M15.82,52.92c-.13,0-.35.44-.38.82s0,1,.13,1,.12-.68.16-.9.31-.83.09-.89"/></g></g></g><path class="cls-8" d="M18.59,55.88c-.38-.11-.39-1.66-.35-2.24s.28-1.28.76-1.28.66.77.61,1.42-.56,2.23-1,2.1"/><g class="cls-22"><g class="cls-43"><g class="cls-44"><path class="cls-24" d="M18.73,53c-.13,0-.34.43-.37.8s0,1,.13.93.12-.65.15-.87.3-.8.09-.86"/></g></g></g><path class="cls-8" d="M15.85,38.94c.08-.48-1.68-1.31-2.35-1.58s-1.61-.34-1.85.2.52,1.16,1.28,1.43,2.83.54,2.92-.05"/><g class="cls-22"><g class="cls-45"><g class="cls-46"><path class="cls-24" d="M12.54,37.6c0-.17.66-.16,1.09,0s1.09.47,1,.63-.8-.21-1.06-.28-1.06-.08-1-.35"/></g></g></g><path class="cls-47" d="M11.57,37.46c-.16.32.08,1.28,1.67,1.67s2.58.25,2.69-.15-1-1.11-1.79-1.52-2.15-.88-2.57,0"/><g class="cls-27"><g class="cls-48"><g class="cls-49"><path class="cls-8" d="M15.87,39.08a9,9,0,0,1-2.82-.3,3.13,3.13,0,0,1-1.52-1.16s-.12,1,1.57,1.47,2.67.23,2.77,0"/></g></g></g><path class="cls-8" d="M13.23,39.18a2.25,2.25,0,0,1-1.66-1.1.79.79,0,0,1-.06-.64A.88.88,0,0,1,12,37a3.31,3.31,0,0,1,2.13.44c.2.1,2,1,1.81,1.59-.07.27-.47.41-1.09.41a7,7,0,0,1-1.66-.23m-1.15-2.1a.75.75,0,0,0-.46.41.64.64,0,0,0,.06.54,2.14,2.14,0,0,0,1.58,1c1.59.39,2.52.24,2.61-.1s-.52-.82-1.75-1.46A4.24,4.24,0,0,0,12.48,37a1.25,1.25,0,0,0-.4.06"/><path class="cls-8" d="M19.43,38.67c-.08-.49,1.67-1.31,2.35-1.58s1.6-.35,1.85.2-.52,1.15-1.28,1.43-2.83.54-2.92,0"/><g class="cls-22"><g class="cls-50"><g class="cls-51"><path class="cls-24" d="M22.74,37.33c0-.17-.66-.16-1.09,0s-1.09.46-1,.63.8-.21,1.06-.28,1.06-.09,1-.35"/></g></g></g><path class="cls-47" d="M23.72,37.24c.15.32-.09,1.28-1.68,1.67s-2.58.25-2.68-.15,1-1.11,1.78-1.52,2.15-.87,2.58,0"/><g class="cls-27"><g class="cls-52"><g class="cls-53"><path class="cls-8" d="M19.41,38.87a9.13,9.13,0,0,0,2.83-.31,3.08,3.08,0,0,0,1.51-1.16s.13,1-1.57,1.47-2.67.23-2.77,0"/></g></g></g><path class="cls-8" d="M20.39,39.2c-.62,0-1-.15-1.09-.42-.15-.57,1.61-1.48,1.81-1.59a3.31,3.31,0,0,1,2.13-.44.88.88,0,0,1,.53.47.82.82,0,0,1-.06.65A2.27,2.27,0,0,1,22.05,39a7.11,7.11,0,0,1-1.66.24m2.42-2.4a4.13,4.13,0,0,0-1.64.49c-1.24.64-1.82,1.21-1.76,1.46s1,.49,2.62.1a2.17,2.17,0,0,0,1.58-1,.69.69,0,0,0,.05-.55.76.76,0,0,0-.45-.41,1.34,1.34,0,0,0-.4-.06"/><path class="cls-8" d="M21.58,41.72c.41-.28,1.93.91,2.48,1.4s1,1.27.65,1.73-1.26.06-1.85-.5-1.76-2.28-1.28-2.63"/><g class="cls-22"><g class="cls-54"><g class="cls-55"><path class="cls-24" d="M24.28,44.08c.14-.1-.16-.66-.49-1s-.91-.76-1-.6.55.62.73.82.56.91.78.76"/></g></g></g><path class="cls-47" d="M24.79,44.91c-.21.28-1.18.5-2.24-.75S21.16,42,21.47,41.7s1.44.38,2.16.91,1.75,1.53,1.16,2.3"/><g class="cls-27"><g class="cls-56"><g class="cls-57"><path class="cls-8" d="M21.4,41.79A9.2,9.2,0,0,0,23,44.18a3.15,3.15,0,0,0,1.72.83s-.79.54-2-.74S21.24,42,21.4,41.79"/></g></g></g><path class="cls-8" d="M21.55,42.82c-.28-.55-.33-1-.12-1.16.44-.39,2.05.77,2.23.9.38.27,1.25,1,1.35,1.7a.87.87,0,0,1-.17.68.78.78,0,0,1-.61.24,2.26,2.26,0,0,1-1.72-1,7.43,7.43,0,0,1-1-1.38m3.22,1.08a4.19,4.19,0,0,0-1.17-1.25c-1.12-.81-1.9-1.07-2.09-.91s0,1.13,1.08,2.39a2.19,2.19,0,0,0,1.64.94.69.69,0,0,0,.52-.2.77.77,0,0,0,.15-.59,1.07,1.07,0,0,0-.13-.38"/><path class="cls-8" d="M24,44.72a2.19,2.19,0,0,1,.81-2.3c1-.81,2.43-1.13,2.85-.69s.3,2.14-.7,3-2.26,1-3,0"/><g class="cls-22"><g class="cls-58"><g class="cls-59"><path class="cls-24" d="M26.39,42.26c0-.21-1.2.05-1.57.55s-.67.9-.52,1.06.64-.79,1-1,1.13-.13,1.09-.56"/></g></g></g><path class="cls-60" d="M25.18,42s.34-.32.45-.28a5,5,0,0,1,1.24,1A5.29,5.29,0,0,1,27.7,44a.79.79,0,0,1-.17.35Z"/><path class="cls-8" d="M27.54,44.45,25.1,42l0,0c.11-.1.38-.33.51-.29a5.3,5.3,0,0,1,1.27,1.06A5.13,5.13,0,0,1,27.76,44a.83.83,0,0,1-.18.37ZM25.27,42l2.26,2.24a.54.54,0,0,0,.11-.26,5.11,5.11,0,0,0-.81-1.19,5.33,5.33,0,0,0-1.21-1,1,1,0,0,0-.35.23"/><line class="cls-60" x1="25.49" y1="42.1" x2="25.71" y2="41.93"/><path class="cls-8" d="M25.49,42.12h0v0l.22-.17s0,0,0,0,0,0,0,0l-.22.18h0"/><line class="cls-60" x1="25.69" y1="42.27" x2="25.91" y2="42.1"/><path class="cls-8" d="M25.7,42.29h0v0l.21-.17h0s0,0,0,0l-.22.18h0"/><line class="cls-60" x1="25.91" y1="42.44" x2="26.13" y2="42.27"/><path class="cls-8" d="M25.91,42.46h0s0,0,0,0l.22-.17h0a0,0,0,0,1,0,0l-.22.18h0"/><line class="cls-60" x1="26.15" y1="42.68" x2="26.37" y2="42.51"/><path class="cls-8" d="M26.15,42.69h0s0,0,0,0l.22-.17h0v0l-.22.17h0"/><line class="cls-60" x1="26.37" y1="42.89" x2="26.59" y2="42.72"/><path class="cls-8" d="M26.37,42.91h0v0l.22-.17h0s0,0,0,0l-.22.18h0"/><line class="cls-60" x1="26.58" y1="43.14" x2="26.8" y2="42.96"/><path class="cls-8" d="M26.59,43.15h0v0l.21-.17h0s0,0,0,0l-.22.18h0"/><line class="cls-60" x1="26.78" y1="43.42" x2="27" y2="43.25"/><path class="cls-8" d="M26.78,43.43h0s0,0,0,0l.22-.17s0,0,0,0v0l-.21.17h0"/><line class="cls-60" x1="27" y1="43.71" x2="27.22" y2="43.53"/><path class="cls-8" d="M27,43.72h0s0,0,0,0l.22-.17h0a0,0,0,0,1,0,0l-.22.18h0"/><line class="cls-60" x1="27.26" y1="43.99" x2="27.48" y2="43.82"/><path class="cls-8" d="M27.27,44h0v0l.22-.17s0,0,0,0,0,0,0,0l-.22.17h0"/><path class="cls-47" d="M24.47,42.51a1.61,1.61,0,0,1,.59-.68c.24-.13,1.14.61,1.52,1.07s1.23,1.36,1.08,1.58-.69.34-.95.55-2,.91-2.71-.31c-.53-.92.29-1.72.47-2.21"/><g class="cls-27"><g class="cls-61"><g class="cls-62"><path class="cls-8" d="M24.32,45.11a3.13,3.13,0,0,0,2-.21c.77-.47,1.28-.49,1.18-.93,0,0,.3.4.2.51a9.17,9.17,0,0,1-.82.47,2.3,2.3,0,0,1-.9.39,1.9,1.9,0,0,1-1.62-.23"/></g></g></g><path class="cls-8" d="M25.58,45.46a1.72,1.72,0,0,1-1.36-.36.06.06,0,0,1,0-.08.05.05,0,0,1,.08,0c.79.73,2.19.13,2.38,0a2.67,2.67,0,0,1,.45-.25,1.32,1.32,0,0,0,.48-.29c.1-.14-.54-.88-.85-1.24l-.22-.27c-.42-.5-1.27-1.15-1.46-1a1.65,1.65,0,0,0-.55.65,3.41,3.41,0,0,1-.22.41,2,2,0,0,0-.41,1.36,0,0,0,0,1,0,.06s-.07,0-.07,0a2,2,0,0,1,.42-1.43,2.23,2.23,0,0,0,.21-.4,1.67,1.67,0,0,1,.61-.71c.13-.07.4,0,.77.32a5.14,5.14,0,0,1,.83.76l.22.26c.59.69,1,1.19.85,1.39a1.33,1.33,0,0,1-.52.33,2.13,2.13,0,0,0-.43.23,2.72,2.72,0,0,1-1.17.39"/><path class="cls-63" d="M26.81,41a1.41,1.41,0,0,1-.17-.83c.09-.31.2-.55.08-.82s-.66-1-.37-1.51,1.16-.46,1.55,1a8.73,8.73,0,0,0,1-1.46c.27-.57.45-1.21,1-1.27s1,.8.6,1.44a11.3,11.3,0,0,1-1,1.24l.33.23a6.85,6.85,0,0,0,1.06-.82c.35-.38.61-.91,1-.93s.71.17.7.77-.27,1.43-2.11,1.76l.13.48a1.8,1.8,0,0,0,1,.16c.37,0,1-.39,1.17.23s-.72,1-1.3,1a1.33,1.33,0,0,1-.95-.27,1.77,1.77,0,0,1-1.42.94c-.63.08-.79,0-.79,0a.55.55,0,0,1-.43.37,1.18,1.18,0,0,1-1.05-.33c-.33-.32-.5-1-.32-1.18s.3-.14.3-.14"/><path class="cls-64" d="M27.34,41a.66.66,0,0,0,.81-.08c.36-.37.2-1.35-.19-1.35a2.28,2.28,0,0,0-.79.2s.36-.3.41-.51a2.32,2.32,0,0,0,.07-1,1.22,1.22,0,0,1,.26.84,1.07,1.07,0,0,1,.76.26c.27.3.4.67.69.85a1.63,1.63,0,0,1,.47,1.23c0,.37-.26.38-.35.36s.12-.38-.06-.52a1.26,1.26,0,0,0-.59-.31,1,1,0,0,1-1.49,0"/><path class="cls-64" d="M30.12,41.93a2.08,2.08,0,0,0,.46-.53,1,1,0,0,0,.84.29c.52-.07,1.51-.46,1.22-1.21a1.5,1.5,0,0,1-1,.84c-.69.14-1-.72-1-.72a2.67,2.67,0,0,0-.21-.82A3,3,0,0,0,32,39.15a1.23,1.23,0,0,0,.33-1.65,1.09,1.09,0,0,1-.29,1,3.06,3.06,0,0,1-1.88.87,4.19,4.19,0,0,0-.65-.67,4.28,4.28,0,0,0,.95-1.19,1.17,1.17,0,0,0-.18-1.33,1.29,1.29,0,0,1-.1,1c-.31.45-.77,1.57-1.73.89l-.4.52a.86.86,0,0,1,1,.15c.55.47.93.68,1.05,1.52a3.24,3.24,0,0,1-.05,1.59"/><path class="cls-64" d="M26.83,41a3.08,3.08,0,0,0,.61.42s-.31.09-.07.22a2.73,2.73,0,0,1,.89.59s.06.3-.15.29a3,3,0,0,1-1.6-1.34,1,1,0,0,1,.32-.18"/><path class="cls-8" d="M32.65,38a.9.9,0,0,0-.23-.66.76.76,0,0,0-.56-.2c-.29,0-.51.3-.74.6-.09.12-.19.25-.29.36a5.61,5.61,0,0,1-1,.77l-.2-.14a11.39,11.39,0,0,0,.91-1.17,1.11,1.11,0,0,0,0-1.18.74.74,0,0,0-.67-.4h0c-.47.06-.69.56-.9,1l-.12.27a7,7,0,0,1-.9,1.31c-.3-.93-.79-1.1-1-1.13a.66.66,0,0,0-.67.31c-.27.43.06,1.05.26,1.42l.1.18a.86.86,0,0,1-.05.64l0,.12a1.23,1.23,0,0,0,.12.77.53.53,0,0,0-.23.16c-.22.24,0,1,.33,1.3a1.22,1.22,0,0,0,1,.37h.12a.67.67,0,0,0,.46-.34,2.05,2.05,0,0,0,.75,0,1.94,1.94,0,0,0,1.45-.9,1.42,1.42,0,0,0,.92.23,1.86,1.86,0,0,0,1.25-.58.63.63,0,0,0,.13-.54.56.56,0,0,0-.22-.37,1,1,0,0,0-.77,0,1.66,1.66,0,0,1-.28.05,1.81,1.81,0,0,1-.94-.13l-.09-.35c.61-.11,2.06-.45,2.09-1.83m-1,2.49.3-.06a1,1,0,0,1,.64,0,.36.36,0,0,1,.13.25.48.48,0,0,1-.09.4,1.7,1.7,0,0,1-1.13.51,1.2,1.2,0,0,1-.88-.25l-.09-.08,0,.11a1.67,1.67,0,0,1-1.35.89,1.43,1.43,0,0,1-.73,0l0,0c-.19-.14-.37-.29-.55-.45.14.19.28.38.44.57a.49.49,0,0,1-.35.26,1.06,1.06,0,0,1-1-.31c-.32-.3-.44-.91-.32-1s.15-.12.18-.12h0a1.48,1.48,0,0,0,.7.34,1.51,1.51,0,0,1-.59-.47,1.28,1.28,0,0,1-.16-.75s0-.08,0-.11a1,1,0,0,0,0-.78c0-.05-.06-.11-.1-.19-.18-.33-.48-.89-.27-1.23a.46.46,0,0,1,.49-.23c.18,0,.63.19.89,1.16l.05.16h0v.12a.75.75,0,0,1-.09.29.85.85,0,0,0,.17-.25,1.28,1.28,0,0,1,.9.46A1.36,1.36,0,0,1,29,40.7a1,1,0,0,1-.47.56,1,1,0,0,0,.51-.54,1.45,1.45,0,0,0,.07-.62,3.47,3.47,0,0,0,.59.34,4.43,4.43,0,0,1-.64-.59L29,39.67A1.33,1.33,0,0,0,28,39v-.14a8.49,8.49,0,0,0,1-1.45l.12-.28c.2-.46.38-.89.76-.94a.56.56,0,0,1,.5.32.91.91,0,0,1,0,1,12.57,12.57,0,0,1-.94,1.21,3.43,3.43,0,0,0-.59-.22l.51.31h0l.24.18a2.7,2.7,0,0,1,1,2,2.42,2.42,0,0,0,0-.6,2,2,0,0,0,1,.13m-1.17-.82a2,2,0,0,0-.49-.66,5.32,5.32,0,0,0,1-.79c.11-.12.21-.25.31-.37.2-.27.39-.52.59-.53a.61.61,0,0,1,.44.15.73.73,0,0,1,.17.53c0,.56-.23,1.34-2,1.67"/><path class="cls-8" d="M11.38,47.71,13.57,46a1.1,1.1,0,0,1,.48.64,1.4,1.4,0,0,1,0,.87Z"/><g class="cls-22"><g class="cls-65"><g class="cls-66"><path class="cls-24" d="M12,47.46c0,.12,1.74-.34,1.55-.78s-1.59.69-1.55.78"/></g></g></g><path class="cls-67" d="M17.79,38c1.66,0,3.34.21,3.76,1.53S23,44.74,22.18,47a4,4,0,0,1-4.51,2.62c-1.64-.24-3.89-1.16-4.09-3.34s.53-2.31.74-3.46-.44-2.39-.15-3.36S15.82,38,17.79,38"/><path class="cls-8" d="M17.79,37.93c1.33,0,3.25,0,3.8,1.5a21.31,21.31,0,0,1,1,4.23c.2,1.67.19,3.59-1,4.94A4.27,4.27,0,0,1,18.35,50,5.78,5.78,0,0,1,14,48.11a3.43,3.43,0,0,1-.7-2.16,4.51,4.51,0,0,1,.24-1.67,9,9,0,0,0,.61-1.48c.21-1-.31-2.13-.1-3.2.33-1.46,2.48-1.63,3.71-1.67m0,0c-1.2,0-3.33.22-3.63,1.65-.18,1.07.38,2.13.18,3.21a8.18,8.18,0,0,1-.57,1.52,4.21,4.21,0,0,0-.18,1.58,3.18,3.18,0,0,0,.68,2,5.67,5.67,0,0,0,4.35,1.71,4.44,4.44,0,0,0,1.3-.28,3.52,3.52,0,0,0,1.51-1.07c1.07-1.26,1.09-3,.95-4.6a21.65,21.65,0,0,0-.86-4.22C21,38,19.1,38,17.79,38"/><g class="cls-68"><g class="cls-69"><g class="cls-69"><path class="cls-8" d="M22.18,47c.78-2.27-.21-6.2-.63-7.52a2.19,2.19,0,0,0-1.81-1.39,9.5,9.5,0,0,1,1.52,5.44A5.6,5.6,0,0,1,18.87,48c-2.12,1.7-4.75-.26-4.79-.29a5.3,5.3,0,0,0,3.59,1.92A4,4,0,0,0,22.18,47"/></g></g></g><path class="cls-60" d="M13.27,44.88a1.87,1.87,0,0,0-.12.8c.07.24,2.72.93,5.13.81a9.37,9.37,0,0,0,4.54-1.34,5.45,5.45,0,0,0-.08-.85Z"/><path class="cls-8" d="M17.69,46.56a14.89,14.89,0,0,1-2.86-.29c-.62-.11-1.67-.37-1.74-.57a1.91,1.91,0,0,1,.12-.84v0l9.57-.59v0a5.38,5.38,0,0,1,.08.87,9.15,9.15,0,0,1-4.6,1.39h-.59m-4.38-1.62a1.55,1.55,0,0,0-.11.73,12.3,12.3,0,0,0,5.07.76,10,10,0,0,0,4.5-1.29,6,6,0,0,0-.08-.78Zm9.46.19h0"/><line class="cls-70" x1="13.55" y1="44.95" x2="13.46" y2="45.55"/><path class="cls-8" d="M13.46,45.56h0a0,0,0,0,1,0,0l.09-.59a0,0,0,0,1,0,0,0,0,0,0,1,0,0l-.09.6a0,0,0,0,1,0,0"/><line class="cls-70" x1="13.87" y1="45.1" x2="13.79" y2="45.7"/><path class="cls-8" d="M13.79,45.71h0l.09-.6s0,0,0,0h0l-.09.6h0"/><line class="cls-70" x1="14.28" y1="45.25" x2="14.19" y2="45.84"/><path class="cls-8" d="M14.19,45.86h0s0,0,0,0l.08-.6h0s0,0,0,0l-.08.6h0"/><line class="cls-70" x1="14.69" y1="45.32" x2="14.65" y2="45.93"/><path class="cls-8" d="M14.65,45.94h0l0-.61h0l0,0,0,.6h0"/><line class="cls-70" x1="15.13" y1="45.25" x2="15.08" y2="46"/><path class="cls-8" d="M15.08,46h0l.06-.75s0,0,0,0h0l-.06.75h0"/><line class="cls-70" x1="15.61" y1="45.25" x2="15.55" y2="46"/><path class="cls-8" d="M15.55,46h0s0,0,0,0l.05-.75h0l-.06.75s0,0,0,0"/><line class="cls-70" x1="16.05" y1="45.25" x2="15.97" y2="46.19"/><path class="cls-8" d="M16,46.21h0s0,0,0,0l.07-.94h0l-.07.94a0,0,0,0,1,0,0"/><line class="cls-70" x1="16.49" y1="45.16" x2="16.42" y2="46.1"/><path class="cls-8" d="M16.42,46.11h0l.07-1h0v0l-.08.94h0"/><line class="cls-70" x1="16.94" y1="45.32" x2="16.94" y2="46.27"/><path class="cls-8" d="M16.93,46.28h0v-1h0v1h0"/><line class="cls-70" x1="17.36" y1="45.15" x2="17.36" y2="46.1"/><path class="cls-8" d="M17.36,46.11h0v-1h0v1h0"/><line class="cls-70" x1="17.96" y1="45.25" x2="17.96" y2="46.2"/><path class="cls-8" d="M18,46.21h0v-1h0v1h0"/><line class="cls-70" x1="18.47" y1="45.33" x2="18.56" y2="46.27"/><path class="cls-8" d="M18.56,46.28h0l-.09-.94,0,0h0l.09.94a0,0,0,0,1,0,0h0"/><line class="cls-70" x1="18.89" y1="45.15" x2="18.97" y2="46.09"/><path class="cls-8" d="M19,46.11h0l-.09-.94,0,0h0l.09.94,0,0h0"/><line class="cls-70" x1="19.27" y1="45.08" x2="19.36" y2="46.02"/><path class="cls-8" d="M19.36,46h0l-.08-.94s0,0,0,0h0l.08.94s0,0,0,0h0"/><line class="cls-70" x1="19.72" y1="45.08" x2="19.8" y2="46.02"/><path class="cls-8" d="M19.8,46h0l-.09-.94,0,0h0l.09.94a0,0,0,0,1,0,0h0"/><line class="cls-70" x1="20.13" y1="44.86" x2="20.21" y2="45.8"/><path class="cls-8" d="M20.21,45.81h0l-.09-.94,0,0h0l.09.94,0,0h0"/><line class="cls-70" x1="20.65" y1="44.85" x2="20.74" y2="45.79"/><path class="cls-8" d="M20.74,45.81s0,0,0,0l-.09-.94h0l.08.94s0,0,0,0h0"/><line class="cls-70" x1="21.01" y1="44.68" x2="21.09" y2="45.62"/><path class="cls-8" d="M21.09,45.64a0,0,0,0,1,0,0L21,44.68h0l.09.94a0,0,0,0,1,0,0h0"/><line class="cls-70" x1="21.46" y1="44.6" x2="21.55" y2="45.55"/><path class="cls-8" d="M21.55,45.56a0,0,0,0,1,0,0l-.09-.94v0h0l.09.94,0,0h0"/><line class="cls-70" x1="21.7" y1="44.3" x2="21.78" y2="45.24"/><path class="cls-8" d="M21.78,45.25h0l-.09-.94,0,0h0l.09.94a0,0,0,0,1,0,0h0"/><line class="cls-70" x1="22" y1="44.46" x2="22.09" y2="45.4"/><path class="cls-8" d="M22.09,45.41h0L22,44.46l0,0v0l.09.94h0"/><line class="cls-70" x1="22.28" y1="44.31" x2="22.37" y2="45.25"/><path class="cls-8" d="M22.37,45.27a0,0,0,0,1,0,0l-.08-.94a0,0,0,0,1,0,0h0l.08.94s0,0,0,0h0"/><line class="cls-70" x1="22.52" y1="44.17" x2="22.61" y2="45.11"/><path class="cls-8" d="M22.61,45.13l0,0-.08-.94a0,0,0,0,1,0,0s0,0,0,0l.09.94s0,0,0,0h0"/><path class="cls-70" d="M13,44.9c0,.19,2.75.92,5.12.72s4.79-.93,4.8-1.32-.53-5.06-1.34-5.8-1.3-.55-1.45-.72.26-.62,0-.66a9.92,9.92,0,0,1-2.73.36c-1.18-.15-2.63-.53-2.52-.2s.46.68.22.82-1.32.66-1.27,1.5A15.51,15.51,0,0,1,14,42.71c-.17.61-.89,1.28-1,2.19"/><path class="cls-8" d="M15.11,38.16a.05.05,0,0,1,0,0,.06.06,0,0,1,0-.08c.1-.06.05-.18-.08-.42a2.49,2.49,0,0,1-.16-.33.13.13,0,0,1,0-.13c.12-.14.63-.06,1.51.09.35.06.7.12,1,.16a6.23,6.23,0,0,0,2.21-.25,1.94,1.94,0,0,1,.53-.1.14.14,0,0,1,.11.06c0,.08,0,.18,0,.31s-.09.24,0,.3a.46.46,0,0,0,.23.08.06.06,0,0,1,.05.06s0,.06-.07,0a.52.52,0,0,1-.29-.12c-.09-.11,0-.27,0-.41s.07-.18.05-.21h0a2.24,2.24,0,0,0-.49.1,6.26,6.26,0,0,1-2.24.25c-.34,0-.7-.1-1-.16a4,4,0,0,0-1.4-.13s0,0,0,0a2.12,2.12,0,0,0,.14.31c.13.23.26.46.05.58h0"/><path class="cls-8" d="M17.26,45.71A11.05,11.05,0,0,1,13,45s0,0,0-.08a3.37,3.37,0,0,1,.61-1.45,3.78,3.78,0,0,0,.38-.75,7.79,7.79,0,0,0-.07-2.16c0-.34-.08-.67-.09-.92a1.13,1.13,0,0,1,.15-.61A.06.06,0,0,1,14,39a.05.05,0,0,1,0,.08,1,1,0,0,0-.14.54c0,.25,0,.57.09.92a7.69,7.69,0,0,1,.07,2.2,3.21,3.21,0,0,1-.4.78,3.41,3.41,0,0,0-.59,1.39,12.22,12.22,0,0,0,5,.68A18.28,18.28,0,0,0,21.39,45c1-.29,1.47-.56,1.47-.69a21,21,0,0,0-1.08-5.4.07.07,0,0,1,0-.08.05.05,0,0,1,.07,0A21.12,21.12,0,0,1,23,44.3c0,.47-2.56,1.19-4.86,1.38-.28,0-.57,0-.86,0"/><g class="cls-6"><g class="cls-71"><g class="cls-71"><path class="cls-8" d="M21.55,39.48a2.2,2.2,0,0,0-1.81-1.38,9.51,9.51,0,0,1,1.52,5.45,5.62,5.62,0,0,1-.7,2.56,10.65,10.65,0,0,0,1.9-.71,19.49,19.49,0,0,0-.91-5.92"/></g></g></g><path class="cls-34" d="M17.05,42a.31.31,0,0,0,.21.09.11.11,0,0,0,.11-.12c0-.17-.44-.16-.46-.52a.37.37,0,0,1,.37-.41.46.46,0,0,1,.3.07l-.08.26a.32.32,0,0,0-.2-.06.11.11,0,0,0-.11.12c0,.18.44.14.47.5a.37.37,0,0,1-.36.42.57.57,0,0,1-.36-.09Z"/><path class="cls-34" d="M17.72,41,18,41l.07.85c0,.12.06.17.14.16s.13-.06.12-.18l-.07-.85.29,0,.07.85a.41.41,0,0,1-.39.47.4.4,0,0,1-.45-.41Z"/><path class="cls-34" d="M18.75,40.9l.36,0c.22,0,.39.09.4.3a.28.28,0,0,1-.12.28h0a.27.27,0,0,1,.21.27.35.35,0,0,1-.36.41l-.39,0Zm.4.47c.06,0,.08-.07.07-.13s0-.11-.09-.11h-.08l0,.23Zm.06.51c.07,0,.1-.07.09-.15s0-.13-.1-.13h-.11l0,.28Z"/><path class="cls-34" d="M19.87,40.81l.31,0L20.6,42l-.29,0-.07-.27-.27,0,0,.27-.29,0Zm.31.74-.07-.25a2.12,2.12,0,0,1-.06-.21h0s0,.14,0,.22l0,.25Z"/><path class="cls-72" d="M18,38.68a.45.45,0,0,0,.42,0,.43.43,0,0,0,.41,0l.06.75a.16.16,0,0,1-.15.18.42.42,0,0,0-.24.09.43.43,0,0,0-.25-.05.17.17,0,0,1-.19-.15Z"/><path class="cls-73" d="M18.19,39.34a.1.1,0,0,0,.12.1.29.29,0,0,1,.16,0,.24.24,0,0,1,.16,0c.07,0,.12-.06.11-.12l0-.51a.39.39,0,0,1-.28,0,.37.37,0,0,1-.27.05"/><path class="cls-74" d="M18.69,39.17v0h0s0,0,0,0h0l0,0"/><path class="cls-74" d="M18.67,39.24s0,0,0,0,0,0,0,0a.05.05,0,0,1,0,0,0,0,0,0,1,0,.05m0-.05s-.05,0-.06,0,0,0,0,.06l0,0a0,0,0,0,0,0,0,.14.14,0,0,0-.05.11h0a.11.11,0,0,1,0-.11s0,0,0,0l0,0s.05,0,.06,0,0,0,0-.06"/><path class="cls-74" d="M18.23,39.23h0s0,0,0,0h0s0,0,0,0h0v0l0,0h0"/><path class="cls-74" d="M18.28,39.28s0,0,0,0,0,0,0,0,0,0,0,0,0,0,0,0m0,0s0,0,0,0l0,0a0,0,0,0,0,0-.06s0,0-.06,0a.05.05,0,0,0,0,.07h.06l0,0s0,0,0,0,0,.08.05.1h0a.14.14,0,0,0-.06-.11"/><path class="cls-74" d="M18.56,39.31h0a0,0,0,0,0,0,0l0,0a.05.05,0,0,0,0,0"/><path class="cls-74" d="M18.36,39.33s0,0,0,0h0s0,0,0,0l0,0"/><path class="cls-75" d="M18.49,39.18s0,0,0,0a.07.07,0,0,0,.09,0,.07.07,0,0,1,0-.05.09.09,0,0,0,.11,0,.1.1,0,0,1-.08,0,.13.13,0,0,0,.11,0l-.09,0c.1,0,.1-.08.1-.08s-.09,0-.09,0a.12.12,0,0,0,.08-.12.38.38,0,0,1-.11.07.07.07,0,0,0,0,.06s0,0,0,0,0,0,0-.06,0,0,0,0h-.06s0,0,0,0h0s0,0,0,0,0,0,0,0l0,0s0-.05-.05-.06a.36.36,0,0,1-.13,0s0,.08.11.11h-.1a.09.09,0,0,0,.11.06l-.08,0a.12.12,0,0,0,.11,0,.08.08,0,0,1-.07,0,.09.09,0,0,0,.11,0,.11.11,0,0,1,0,0,.07.07,0,0,0,.08,0s0,0,0,0-.06,0-.07.06h0l-.05,0h0s0,0,0,0,0,0,0,0h0s0,0,0,0h0v0l.05,0h0l0,0a.11.11,0,0,0,0,.08s0,0,0,0,0,0,0,.11,0-.11,0-.11h0a.11.11,0,0,0,0-.08l0,0h0l.07,0s0,0,0,0h0s0,0,0,0h0s0,0,0,0,0,0,0,0h0l-.06-.05h0s0,0-.07,0m0-.3,0,0,0,0,0,0v0h0l0,0Zm-.05,0h0a0,0,0,0,1,0,0,0,0,0,0,1,0,0"/><path class="cls-73" d="M18.08,38.81s0,0,0,0,0,0,0,0,0,0,0,0,0,0,0,0m0,.07h0a0,0,0,0,0,0,0s0,0,0,.05h0s0,0,0,0h0v0h0a.22.22,0,0,0,0-.08v0s0,0,0,0h0a0,0,0,0,0,0,0,0,0,0,0,0-.05,0,0,0,0,0,0,0,0s0,0,0,0"/><path class="cls-73" d="M18.45,38.76a0,0,0,0,0,0,0h0s0,0,0,0h0s0,0,0,0h0v0h0"/><path class="cls-73" d="M18.07,38.8h0v0h0"/><path class="cls-73" d="M18.75,38.75h0s0,0,0,0h0"/><path class="cls-73" d="M18.79,39.05h0v0h0"/><path class="cls-73" d="M18.76,38.76l0,0s0,0,0,0,0,0,0,0,0,0,0,0m0,.07s0,0,0,0a0,0,0,0,0,0,0,0,0,0,0,1,0,0,.13.13,0,0,0,0,.09v0s0,0,0,0h0s0,0,0,0h-.05s0,0,0,0,0,0,0,0h0s0,0,0,0,0,0,0,0a0,0,0,0,0,0,0s0,0,.05,0"/><path class="cls-73" d="M18.13,39.09h0a0,0,0,0,0,0,0h0s0,0,0,0h0l0,0"/><path class="cls-73" d="M18.37,38.77h0s0,0,0,0h0s0,0,0,0h0v0"/><path class="cls-73" d="M18.09,39.16s0,0,0,0,0,0,0,0,0,0,0,0l0,0m0,.15h0s0-.07,0-.1,0,0,0,0h0a0,0,0,0,0,0,0,.05.05,0,0,0-.05,0s-.05,0,0,0a0,0,0,0,0,0,0h0s0,0,0,0,0,0,0,0h0a0,0,0,0,0,0,0s0,0,0,0,0,0,0,0h0s0,0,0,.06"/><path class="cls-73" d="M18.12,39.41h0v0h0v0h0"/><path class="cls-73" d="M18.82,39.34v0h0s0,0,0,0h0s0,0,0,0h0"/><path class="cls-73" d="M18.52,38.77l0,0s0,0,0,0l0,0s0,0,0,0m.16,0h0v0l0,0a0,0,0,0,0,0,0h-.05s0,0,0,0,0,0,0,0a0,0,0,0,0,0,0s0,0,0,0,0,0,0,0,0,0,0,0,0,0,0,0a0,0,0,0,0,0,0h0a.11.11,0,0,0,.08,0"/><path class="cls-73" d="M18.77,39.1s0,0,0,0,0,0,0,0,0,0,0,0,0,0,0,0m.08,0s0,0,0,0,0,0,0,0h0v0s0,0,0,0h0a0,0,0,0,0,0,0s0,0,0,0a0,0,0,0,0-.05,0,0,0,0,0,0,0,0h0s0,0,0,0,0,0,0,.1h0a.06.06,0,0,0,0-.06l0,0a0,0,0,0,0,0,0"/><path class="cls-73" d="M18.81,39.4a0,0,0,0,1,0,0s0,0,0,0,0,0,0,0,0,0,0,0m0,0s0,0-.06,0,0,0,0,.05l0,0s0,0,0,0l0,0a.1.1,0,0,0,0,.07h0s0,0,0,0h0l0,0h-.05l0,0s0,0,0,0l0,0s0,0,0,0a0,0,0,0,0,0,0"/><path class="cls-73" d="M18.17,39.47a0,0,0,0,1,0,0,.06.06,0,0,1,0,0l0,0s0,0,0,0m0,0,0,0s0,0,0,0l0,0a0,0,0,0,0,0-.06h-.06s0,0,0,.06h.05l0,0a0,0,0,0,0,0,0l0,0h0l0,0h.06a0,0,0,0,1,0,0h0a.12.12,0,0,0-.06-.06"/><path class="cls-73" d="M18.29,38.77s0,0,0,0l0,0s0,0,0,0,0,0,0,0m0,0s0,0,0-.05a0,0,0,0,0,0,0s0,0,0,0a0,0,0,0,1,0,0s0,0,0,0l-.05,0h0a0,0,0,0,0,0,0l0,0a0,0,0,0,0,0,0h0a.08.08,0,0,0,.08,0l0,0s0,0,0,0,0,0,0,0a0,0,0,0,0,0,0"/><path class="cls-73" d="M18.46,39.53s0,0,0,0l0,0,0,0s0,0,0,0m.05,0h0s0,0,0,0,0,0,0,0a0,0,0,0,0,0,0s0,0,0,0a.05.05,0,0,0,0,0,0,0,0,0,0,0,0s0,0,0,0,0,0,0,0l.05,0h0v0l0,0a0,0,0,0,0,0,0h.05a.1.1,0,0,0-.09,0"/><path class="cls-73" d="M18.39,39.52s0,0,0,0h0v0h0a0,0,0,0,0,0,0h0l0,0h0"/><path class="cls-75" d="M18.1,39.84h0s0,0,0,0H18s0,0,0-.05,0,0,0,0h0s0,0,0,0l0,0h-.07s0,0,0,0,0,0,0,0h0v0"/><path class="cls-75" d="M18.19,39.83l0,0v0Zm0,0h0l0,0h0v0h0l0-.12h0Z"/><polygon class="cls-75" points="18.25 39.87 18.24 39.75 18.27 39.75 18.27 39.85 18.33 39.85 18.33 39.87 18.25 39.87"/><path class="cls-75" d="M18.36,39.76v.08h0v0h-.05Zm0,0h.09s0,0,0,0v0a0,0,0,0,0,0,0h-.09Z"/><path class="cls-75" d="M18.44,39.74h0v.12h0Zm0,0v0h0l0,0Z"/><path class="cls-75" d="M18.56,39.8l0,0v0Zm.05,0h0v0h-.05v0h0l0-.12h0Z"/><polygon class="cls-75" points="18.66 39.84 18.65 39.72 18.69 39.72 18.72 39.8 18.73 39.71 18.77 39.71 18.78 39.83 18.75 39.83 18.75 39.74 18.73 39.83 18.71 39.84 18.68 39.74 18.68 39.84 18.66 39.84"/><path class="cls-75" d="M18.86,39.78l0-.05,0,.05Zm0,0h0v0h-.05v0h0l0-.12h0Z"/><polygon class="cls-75" points="18.92 39.82 18.91 39.77 18.86 39.7 18.89 39.7 18.92 39.75 18.95 39.7 18.97 39.69 18.94 39.77 18.94 39.82 18.92 39.82"/><path class="cls-75" d="M19,39.75s0,0,0,0h0a0,0,0,0,0,0,0,0,0,0,0,0,0,0H19a0,0,0,0,0,0,0m0,0v0h0l0,0h.06a0,0,0,0,1,0,0,0,0,0,0,1,0,0,.05.05,0,0,1,0,0h0a.08.08,0,0,1,0,0"/><path class="cls-75" d="M19.12,39.73h0Zm0,.07v-.12h.09s0,0,0,0v0s0,0,0,0h0l0,0v0h0v0h0v0Z"/><rect class="cls-75" x="18.98" y="39.98" width="0.02" height="0.02" transform="translate(-3.01 1.57) rotate(-4.4)"/><path class="cls-75" d="M17.93,40v.08H18v0h-.05Zm0,0H18s0,0,0,0a0,0,0,0,0,0,0s0,0,0,0a0,0,0,0,1,0,0,0,0,0,0,0,0,0h-.07Z"/><polygon class="cls-75" points="18.02 40.09 18.01 39.97 18.09 39.96 18.1 39.98 18.03 39.99 18.04 40.01 18.09 40.01 18.09 40.03 18.04 40.03 18.04 40.06 18.11 40.06 18.11 40.08 18.02 40.09"/><path class="cls-75" d="M18.18,40v0h0Zm0-.05v0h0Zm0,0h.1a0,0,0,0,1,0,0v0h0a0,0,0,0,0,0,0v0h-.09Z"/><path class="cls-75" d="M18.29,40s0,0,0,0h.05v0a0,0,0,0,0,0,0h-.05v0m0,0a0,0,0,0,1,0,0v0h.08s0,0,0,0a.05.05,0,0,1,0,0s0,0,0,0h0s0,0,0,0"/><path class="cls-75" d="M18.45,40v0h0V40l0,0h-.06l0,0a0,0,0,0,1,0,0v0l0,0h.06a0,0,0,0,1,0,0h-.07a0,0,0,0,0,0,0,0,0,0,0,0,0,0h0Z"/><path class="cls-75" d="M18.53,40a0,0,0,0,0,0,0h.05v0a0,0,0,0,0,0,0s0,0,0,0h0s0,0,0,0m0,0a0,0,0,0,1,0,0v0h.08a.08.08,0,0,1,0,0s0,0,0,0a0,0,0,0,1,0,0s0,0-.05,0l0,0"/><polygon class="cls-75" points="18.66 40.03 18.65 39.94 18.61 39.94 18.61 39.92 18.7 39.91 18.71 39.93 18.67 39.94 18.68 40.03 18.66 40.03"/><path class="cls-75" d="M18.74,39.9v0h0l0,0Zm0,.08,0,0v0Zm.05,0h0v0h-.05v0h0l0-.12h0Z"/><path class="cls-75" d="M18.9,39.92V40h0v-.06H18.9Zm0,0H19v0s0,0,0,0a0,0,0,0,1,0,0,0,0,0,0,1,0,0h-.08Z"/><path class="cls-75" d="M19.08,40h0a0,0,0,0,1,0,0H19a.05.05,0,0,1,0,0,.07.07,0,0,1,0-.05l0,0h0v0h0a0,0,0,0,0,0,0h0s0,0,0,0,0,0,0,0h0v0"/><rect class="cls-75" x="19.11" y="39.97" width="0.02" height="0.02" transform="translate(-2.9 1.52) rotate(-4.23)"/><path class="cls-75" d="M17.89,39.85l0,0v0Zm.05,0h0v0h0v0h0l0-.13h0Z"/><polygon class="cls-75" points="17.94 39.9 17.93 39.78 17.96 39.78 17.96 39.88 18.02 39.87 18.02 39.89 17.94 39.9"/><g class="cls-6"><g class="cls-76"><g class="cls-76"><path class="cls-34" d="M15,39.88c.22-.18.84,1.24.87,2.06s-.5,3-.47,4,.56,2-.18,2.1-1.06-1.66-.83-2.78,1-2.37,1-3c.16-1.38-.63-2.19-.43-2.33"/></g></g></g><path class="cls-34" d="M16.66,40.41l.18,0c.1,0,.17.07.19.18a.18.18,0,0,1-.16.21h-.05l0,.17h-.13Zm.18.26s.06,0,.05-.09a.07.07,0,0,0-.06-.07h0v.16Z"/><path class="cls-34" d="M17.22,40.51a.19.19,0,0,1,.2.19.18.18,0,0,1-.16.23.19.19,0,0,1-.2-.19c0-.13.05-.22.16-.23m0,.31s.05,0,.05-.11,0-.1-.07-.09-.05,0,0,.1,0,.1.06.1"/><path class="cls-34" d="M17.44,40.34h.13l0,.39s0,.05,0,.05h0v.12h0c-.06,0-.13,0-.14-.14Z"/><path class="cls-34" d="M17.66,40.32h.13v.1h-.13Zm0,.16.12,0,0,.41h-.13Z"/><path class="cls-34" d="M17.87,40.46H18v0h0a.09.09,0,0,1,.09-.06c.06,0,.11,0,.12.12l0,.28h-.13l0-.25s0,0,0,0,0,.06,0,.09l0,.21h-.13Z"/><path class="cls-34" d="M18.25,40.27l.13,0v.11h-.13Zm0,.15h.12l0,.4-.12,0Z"/><path class="cls-34" d="M18.48,40.74l.1-.2,0,0h-.14V40.4l.29,0v.07l-.1.2a.11.11,0,0,1,0,0h.14v.1l-.29,0Z"/><path class="cls-34" d="M19,40.51h0s0,0,0,0a.19.19,0,0,0-.08,0l0-.09a.27.27,0,0,1,.12,0,.15.15,0,0,1,.17.15l0,.25H19v0h0a.13.13,0,0,1-.09.07c-.06,0-.1,0-.11-.12s.07-.14.16-.15m0,.16s0,0,0-.06v0h0s0,0,0,0,0,0,0,0"/><path class="cls-34" d="M19.16,40.34h.12v0h0s0,0,.09-.06a.11.11,0,0,1,.12.13l0,.27-.13,0,0-.26s0,0,0,0,0,.07,0,.1l0,.2-.13,0Z"/><path class="cls-34" d="M19.68,40.28a.12.12,0,0,1,.08,0h0v-.17h.13l.05.56H19.8v0h0a.15.15,0,0,1-.09.06c-.09,0-.15-.08-.16-.2s0-.22.13-.23m.06.32s0,0,0-.11,0-.1-.06-.1,0,0,0,.11,0,.1.06.1"/><path class="cls-34" d="M20.11,40.24c.11,0,.19.07.21.2a.19.19,0,0,1-.17.23c-.11,0-.19-.07-.2-.2a.19.19,0,0,1,.16-.23m0,.32s.05-.05.05-.11,0-.1-.07-.1-.05,0,0,.11,0,.1.06.1"/><path class="cls-8" d="M12,37.79a2.22,2.22,0,0,0-1.05-2.21c-1-.7-2.53-.87-2.9-.39a2.56,2.56,0,0,0,1,2.87c1.07.71,2.34.76,3-.27"/><g class="cls-22"><g class="cls-77"><g class="cls-77"><path class="cls-24" d="M9.36,35.58c0-.21,1.19-.07,1.61.39s.76.83.64,1-.73-.72-1.12-.94-1.13,0-1.13-.45"/></g></g></g><path class="cls-60" d="M10.62,35.28s-.38-.27-.48-.23A5.1,5.1,0,0,0,9,36.21a5,5,0,0,0-.69,1.31c0,.14.2.32.2.32Z"/><path class="cls-8" d="M8.48,37.88a.8.8,0,0,1-.22-.35A4.93,4.93,0,0,1,9,36.18,5.09,5.09,0,0,1,10.12,35c.12,0,.41.15.53.24l0,0L8.53,37.93Zm1.68-2.77a5,5,0,0,0-1.1,1.13,4.88,4.88,0,0,0-.68,1.27.49.49,0,0,0,.14.25l2-2.47c-.16-.11-.33-.2-.37-.18"/><line class="cls-60" x1="10.32" y1="35.38" x2="10.09" y2="35.23"/><path class="cls-8" d="M10.32,35.4h0s0,0,0,0l-.24-.15h0s0,0,0,0l.24.15h0"/><line class="cls-60" x1="10.13" y1="35.57" x2="9.9" y2="35.42"/><path class="cls-8" d="M10.13,35.59h0v0l-.23-.15h0s0,0,0,0l.24.15h0"/><line class="cls-60" x1="9.93" y1="35.76" x2="9.7" y2="35.61"/><path class="cls-8" d="M9.93,35.78h0s0,0,0,0l-.23-.15h0s0,0,0,0l.24.15h0"/><line class="cls-60" x1="9.73" y1="36.02" x2="9.49" y2="35.87"/><path class="cls-8" d="M9.73,36h0s0,0,0,0l-.23-.15h0s0,0,0,0l.24.15h0"/><line class="cls-60" x1="9.52" y1="36.26" x2="9.29" y2="36.11"/><path class="cls-8" d="M9.52,36.27h0s0,0,0,0l-.24-.15h0s0,0,0,0l.23.15h0"/><line class="cls-60" x1="9.34" y1="36.52" x2="9.1" y2="36.37"/><path class="cls-8" d="M9.34,36.53h0s0,0,0,0l-.23-.15h0a0,0,0,0,0,0,0l.24.15h0"/><line class="cls-60" x1="9.17" y1="36.82" x2="8.94" y2="36.67"/><path class="cls-8" d="M9.17,36.84h0v0L9,36.66s0,0,0,0,0,0,0,0l.24.15h0"/><line class="cls-60" x1="8.98" y1="37.13" x2="8.75" y2="36.98"/><path class="cls-8" d="M9,37.14H9s0,0,0,0L8.75,37h0s0,0,0,0l.23.15H9"/><line class="cls-60" x1="8.75" y1="37.44" x2="8.51" y2="37.29"/><path class="cls-8" d="M8.75,37.46h0v0l-.24-.15h0v0l.24.15h0"/><path class="cls-47" d="M11.37,35.69a1.58,1.58,0,0,0-.65-.63c-.26-.1-1.07.73-1.41,1.22S8.23,37.77,8.41,38s.72.28,1,.46,2.1.69,2.67-.59c.43-1-.47-1.68-.7-2.14"/><g class="cls-27"><g class="cls-78"><g class="cls-79"><path class="cls-8" d="M11.79,38.25a3.09,3.09,0,0,1-2,0c-.82-.39-1.33-.36-1.27-.81,0,0-.26.43-.14.52a6.44,6.44,0,0,0,.86.39,2.32,2.32,0,0,0,.93.3,1.94,1.94,0,0,0,1.59-.4"/></g></g></g><path class="cls-8" d="M10.58,38.73a1.67,1.67,0,0,0,1.3-.5.05.05,0,0,0,0-.08.06.06,0,0,0-.08,0c-.71.81-2.16.35-2.37.22a2.29,2.29,0,0,0-.47-.2,1.52,1.52,0,0,1-.51-.24c-.11-.13.45-.94.71-1.33a2.17,2.17,0,0,0,.2-.29c.36-.53,1.14-1.27,1.34-1.19a1.54,1.54,0,0,1,.62.59,2.92,2.92,0,0,0,.26.39,2,2,0,0,1,.55,1.3.06.06,0,0,0,.11,0A2,2,0,0,0,11.67,36a4,4,0,0,1-.25-.37,1.71,1.71,0,0,0-.68-.65c-.14-.06-.39.08-.73.4a4.69,4.69,0,0,0-.74.84l-.2.29c-.52.74-.87,1.28-.71,1.46a1.46,1.46,0,0,0,.56.28,1.91,1.91,0,0,1,.45.18,2.62,2.62,0,0,0,1.21.27"/><path class="cls-8" d="M23.29,37.52a2.21,2.21,0,0,1,1.05-2.21c1-.71,2.53-.88,2.9-.39a2.56,2.56,0,0,1-1,2.87c-1.07.71-2.35.75-2.95-.27"/><g class="cls-22"><g class="cls-80"><g class="cls-80"><path class="cls-24" d="M25.92,35.31c0-.21-1.19-.07-1.61.39s-.76.83-.64,1,.73-.72,1.11-1,1.14,0,1.14-.44"/></g></g></g><path class="cls-60" d="M24.75,35s.37-.28.47-.23A5.45,5.45,0,0,1,27,37.2a.74.74,0,0,1-.2.33Z"/><path class="cls-8" d="M26.84,37.61,24.66,35l.05,0c.12-.09.41-.29.54-.24a5.53,5.53,0,0,1,1.15,1.18,5.29,5.29,0,0,1,.7,1.35.85.85,0,0,1-.22.36Zm-2-2.63,2,2.46A.63.63,0,0,0,27,37.2a5.3,5.3,0,0,0-.69-1.27,5.13,5.13,0,0,0-1.1-1.14.88.88,0,0,0-.37.19"/><line class="cls-60" x1="25.04" y1="35.06" x2="25.28" y2="34.91"/><path class="cls-8" d="M25,35.08h0s0,0,0,0l.24-.15h0a0,0,0,0,1,0,0l-.23.15h0"/><line class="cls-60" x1="25.23" y1="35.26" x2="25.47" y2="35.11"/><path class="cls-8" d="M25.23,35.27a0,0,0,0,1,0,0s0,0,0,0l.24-.15h0v0l-.23.15h0"/><line class="cls-60" x1="25.43" y1="35.45" x2="25.66" y2="35.3"/><path class="cls-8" d="M25.43,35.46h0s0,0,0,0l.24-.15h0v0l-.23.15h0"/><line class="cls-60" x1="25.64" y1="35.7" x2="25.87" y2="35.55"/><path class="cls-8" d="M25.64,35.72h0s0,0,0,0l.24-.15h0a0,0,0,0,1,0,0l-.24.15h0"/><line class="cls-60" x1="25.84" y1="35.94" x2="26.08" y2="35.79"/><path class="cls-8" d="M25.84,36h0a0,0,0,0,1,0,0l.24-.15h0v0l-.24.15h0"/><line class="cls-60" x1="26.03" y1="36.2" x2="26.26" y2="36.05"/><path class="cls-8" d="M26,36.22h0v0l.23-.15h0s0,0,0,0l-.24.15h0"/><line class="cls-60" x1="26.19" y1="36.51" x2="26.42" y2="36.36"/><path class="cls-8" d="M26.19,36.52s0,0,0,0,0,0,0,0l.24-.15h0s0,0,0,0l-.23.15h0"/><line class="cls-60" x1="26.38" y1="36.81" x2="26.62" y2="36.66"/><path class="cls-8" d="M26.38,36.83h0v0l.24-.15h0v0l-.24.15h0"/><line class="cls-60" x1="26.61" y1="37.13" x2="26.85" y2="36.98"/><path class="cls-8" d="M26.61,37.14h0a0,0,0,0,1,0,0l.23-.15h0s0,0,0,0l-.24.15h0"/><path class="cls-47" d="M24,35.37a1.71,1.71,0,0,1,.65-.63c.26-.1,1.08.73,1.41,1.23s1.08,1.48.91,1.68-.73.27-1,.45-2.1.7-2.67-.58c-.43-1,.47-1.69.7-2.15"/><g class="cls-27"><g class="cls-81"><g class="cls-82"><path class="cls-8" d="M23.57,37.93a3.12,3.12,0,0,0,2,0c.81-.39,1.32-.36,1.26-.8,0,0,.26.42.15.52a8.61,8.61,0,0,1-.87.38,2.32,2.32,0,0,1-.93.3,1.87,1.87,0,0,1-1.59-.4"/></g></g></g><path class="cls-8" d="M24.79,38.41a1.69,1.69,0,0,1-1.31-.5.06.06,0,0,1,0-.08.05.05,0,0,1,.08,0c.71.8,2.16.34,2.37.21a2.39,2.39,0,0,1,.48-.2,1.29,1.29,0,0,0,.5-.24c.12-.13-.44-.94-.71-1.33L26,36c-.36-.54-1.14-1.28-1.34-1.2a1.61,1.61,0,0,0-.62.59,2.92,2.92,0,0,1-.26.39,2,2,0,0,0-.54,1.3.06.06,0,0,1,0,.06s-.06,0-.07,0a2.11,2.11,0,0,1,.57-1.38,2,2,0,0,0,.25-.37,1.78,1.78,0,0,1,.68-.65c.14,0,.39.08.74.4a6.19,6.19,0,0,1,.74.84c0,.09.12.18.19.29.52.74.87,1.28.71,1.46a1.33,1.33,0,0,1-.56.28,2.34,2.34,0,0,0-.45.19,2.73,2.73,0,0,1-1.2.26"/><path class="cls-63" d="M26.46,34.14a1.42,1.42,0,0,1-.08-.84c.13-.3.26-.53.16-.81s-.54-1.1-.2-1.54,1.2-.34,1.44,1.12A8.9,8.9,0,0,0,29,30.72c.32-.54.57-1.15,1.07-1.17s.94.9.45,1.5a11.67,11.67,0,0,1-1.08,1.13l.29.27a6.72,6.72,0,0,0,1.14-.71c.4-.35.71-.85,1.06-.82s.68.24.61.83-.41,1.39-2.28,1.53l.08.5a1.89,1.89,0,0,0,1,.26c.36,0,1.08-.29,1.14.35s-.83.88-1.41.88a1.31,1.31,0,0,1-.91-.37,1.8,1.8,0,0,1-1.51.79c-.64,0-.78-.12-.78-.12a.57.57,0,0,1-.47.32,1.15,1.15,0,0,1-1-.44c-.3-.34-.4-1-.2-1.2s.31-.11.31-.11"/><path class="cls-64" d="M27,34.14a.67.67,0,0,0,.82,0c.39-.33.34-1.32-.05-1.36a2.28,2.28,0,0,0-.81.12s.39-.26.46-.47a2.5,2.5,0,0,0,.17-1,1.23,1.23,0,0,1,.17.87,1,1,0,0,1,.73.34c.24.32.33.71.6.9a1.64,1.64,0,0,1,.34,1.28c-.09.36-.29.35-.39.32s.16-.36,0-.52a1.17,1.17,0,0,0-.56-.36A1,1,0,0,1,27,34.14"/><path class="cls-64" d="M29.67,35.37a1.89,1.89,0,0,0,.51-.48,1,1,0,0,0,.81.38c.52,0,1.55-.31,1.33-1.08a1.5,1.5,0,0,1-1.07.73c-.7.07-1-.82-1-.82a3,3,0,0,0-.12-.85,3,3,0,0,0,1.7-.45,1.23,1.23,0,0,0,.49-1.6s.1.72-.39,1a3.08,3.08,0,0,1-2,.67,3.9,3.9,0,0,0-.58-.73,4.17,4.17,0,0,0,1.07-1.09,1.15,1.15,0,0,0,0-1.34,1.27,1.27,0,0,1-.21,1c-.34.42-.92,1.49-1.8.71l-.46.48a.86.86,0,0,1,1,.25c.5.53.85.78.89,1.62a3.3,3.3,0,0,1-.21,1.58"/><path class="cls-64" d="M26.48,34.14a2.88,2.88,0,0,0,.57.49s-.32,0-.09.2a2.79,2.79,0,0,1,.82.69s0,.3-.17.27a3.05,3.05,0,0,1-1.46-1.5,1.06,1.06,0,0,1,.33-.15"/><path class="cls-8" d="M32.58,31.76a.9.9,0,0,0-.15-.68.73.73,0,0,0-.55-.25c-.28,0-.53.24-.79.51-.1.11-.21.23-.32.33a6,6,0,0,1-1.07.67l-.18-.16a10.55,10.55,0,0,0,1-1.08,1.1,1.1,0,0,0,.12-1.17.74.74,0,0,0-.63-.47h0c-.48,0-.74.49-1,1l-.15.26a7.48,7.48,0,0,1-1,1.2c-.2-.95-.66-1.18-.86-1.23a.67.67,0,0,0-.7.25c-.31.4-.05,1,.12,1.43l.07.19a.9.9,0,0,1-.11.64l-.05.11a1.21,1.21,0,0,0,0,.78.54.54,0,0,0-.25.13c-.24.22-.14,1,.19,1.33a1.25,1.25,0,0,0,1,.48h.12a.6.6,0,0,0,.49-.29,1.82,1.82,0,0,0,.75.09A1.93,1.93,0,0,0,30.14,35a1.44,1.44,0,0,0,.89.32,1.89,1.89,0,0,0,1.31-.45.65.65,0,0,0,.18-.53.48.48,0,0,0-.18-.38,1,1,0,0,0-.76-.08l-.28,0a1.81,1.81,0,0,1-.93-.23l-.06-.35c.62-.06,2.11-.24,2.27-1.61m-1.29,2.37.31,0c.23,0,.5-.07.63,0a.34.34,0,0,1,.12.26.51.51,0,0,1-.14.39,1.72,1.72,0,0,1-1.18.39,1.18,1.18,0,0,1-.84-.34l-.08-.09-.06.11a1.7,1.7,0,0,1-1.44.74,1.32,1.32,0,0,1-.72-.09l0,0c-.17-.16-.34-.33-.5-.51a6.34,6.34,0,0,0,.37.62.44.44,0,0,1-.36.22,1.06,1.06,0,0,1-.94-.41c-.29-.33-.35-1-.21-1.07a.3.3,0,0,1,.19-.1h0a1.53,1.53,0,0,0,.66.41,1.52,1.52,0,0,1-.54-.53,1.35,1.35,0,0,1-.08-.76l.05-.11a1,1,0,0,0,.12-.77l-.08-.2c-.14-.35-.39-.93-.14-1.25a.48.48,0,0,1,.51-.18c.18,0,.61.25.77,1.25l0,.17h0a.49.49,0,0,1,0,.12.88.88,0,0,1-.12.28.71.71,0,0,0,.19-.23,1.27,1.27,0,0,1,.85.55,1.33,1.33,0,0,1,0,1.07.9.9,0,0,1-.53.5,1,1,0,0,0,.57-.48,1.42,1.42,0,0,0,.13-.61,2.84,2.84,0,0,0,.56.4,3.6,3.6,0,0,1-.58-.65,1.29,1.29,0,0,0,0-.19,1.36,1.36,0,0,0-.92-.76.57.57,0,0,0,0-.13A7.9,7.9,0,0,0,29,30.77a2.43,2.43,0,0,0,.15-.26c.25-.44.48-.86.86-.87a.58.58,0,0,1,.47.37.93.93,0,0,1-.09,1,12.15,12.15,0,0,1-1.07,1.11,2.93,2.93,0,0,0-.56-.28,4.8,4.8,0,0,1,.47.36h0l.23.2a2.71,2.71,0,0,1,.77,2.12,2.58,2.58,0,0,0,.07-.6,2,2,0,0,0,1,.23m-1.07-.94a2,2,0,0,0-.42-.7,5.67,5.67,0,0,0,1.08-.69,2.73,2.73,0,0,0,.34-.34c.23-.24.45-.47.65-.45a.55.55,0,0,1,.42.18.72.72,0,0,1,.11.55c-.06.56-.36,1.31-2.18,1.45"/><path class="cls-63" d="M5.82,33a8.25,8.25,0,0,1-1.39-.86c-.56-.46-.92-1.48-.56-1.77s1.87.45,3.19,1.89c0,0,.29-1.11,1.13-1.12s.77.9.57,1.27-.31.75-.11.93.18.73.13.9c0,0,.27-.05.38.33s-.29,1-.61,1.33-.87.73-1.26.29a1.66,1.66,0,0,1-2-.41,2.07,2.07,0,0,1-1.31.5c-.76,0-1.05-.48-1.06-.79s.48-.62,2.12-.65a2.47,2.47,0,0,1,0-.52A3.69,3.69,0,0,1,2.81,34c-1.06-.6-.66-1.35-.49-1.46s.56-.24,1.24.18a6.58,6.58,0,0,0,1.88.78A2.55,2.55,0,0,1,5.82,33"/><path class="cls-64" d="M3.24,34.19s1.25.05,1.43-.36-.33-.71-.33-.71l1.15.4-.32.83a4.68,4.68,0,0,1-1.93-.16"/><path class="cls-64" d="M4.93,32.53s.62.15.84-.24-.06-1.21-.06-1.21A6.35,6.35,0,0,1,7,32.24,2.32,2.32,0,0,0,5.82,33a5.83,5.83,0,0,1-.89-.5"/><path class="cls-64" d="M4.1,34.93s.68.24.63.62-.74.76-.74.76A1.86,1.86,0,0,0,5.3,35.8a3.73,3.73,0,0,1-.13-.94,4.45,4.45,0,0,0-1.07.07"/><path class="cls-64" d="M8.45,31.21a.84.84,0,0,1,0,.64,2.51,2.51,0,0,0-.33,1.31c.07.44.36.67.27.93a.91.91,0,0,1-1.11.62.82.82,0,0,0,.63.47,2.18,2.18,0,0,1-1.14,1.2A1.67,1.67,0,0,0,8.27,35a1.4,1.4,0,0,0,.53-1.22c-.12-.71-.45-.25-.16-1.11s.41-.91-.19-1.43"/><path class="cls-64" d="M7.21,36.29a3.73,3.73,0,0,0,1.38-.95c.36-.53.4-.8.34-1.05a.6.6,0,0,1,.19.75,2.11,2.11,0,0,1-1.25,1.38.83.83,0,0,1-.66-.13"/><path class="cls-64" d="M6,35.49s.44-1.23.93-1a.91.91,0,0,1-.23-1,1.64,1.64,0,0,1-.36.53c-.19.14-.41.57-.34,1.46"/><path class="cls-8" d="M7.69,36.51h0a.66.66,0,0,1-.41-.18,1.74,1.74,0,0,1-2-.4A2.2,2.2,0,0,1,4,36.4c-.82,0-1.14-.53-1.15-.88A.4.4,0,0,1,3,35.23a3.19,3.19,0,0,1,2-.44,2,2,0,0,1,0-.33,3.76,3.76,0,0,1-2.21-.39,1.26,1.26,0,0,1-.76-1,.81.81,0,0,1,.26-.63c.18-.12.6-.27,1.34.18a6.2,6.2,0,0,0,1.86.77l0,.17a6.48,6.48,0,0,1-1.9-.79c-.66-.39-1-.28-1.15-.18a.64.64,0,0,0-.18.48,1.13,1.13,0,0,0,.67.84,3.62,3.62,0,0,0,2.21.34l.14,0,0,.14a2.28,2.28,0,0,0,0,.5V35H5.05c-1.4,0-1.83.25-2,.39a.23.23,0,0,0-.07.16c0,.28.28.7,1,.71a2,2,0,0,0,1.25-.48l.07-.07.06.08a1.53,1.53,0,0,0,1.88.39l.06,0,.05,0a.41.41,0,0,0,.32.17,1.27,1.27,0,0,0,.8-.46c.36-.38.68-.93.59-1.24s-.25-.27-.27-.27l-.15,0,0-.14a1.13,1.13,0,0,0-.11-.82c-.2-.18-.17-.53.09-1a1,1,0,0,0,0-.89.57.57,0,0,0-.52-.25h0c-.76,0-1,1.05-1,1.06l0,.15L7,32.35c-1.31-1.43-2.76-2.13-3.06-1.88a.4.4,0,0,0-.11.31,2,2,0,0,0,.67,1.32A7.58,7.58,0,0,0,5.86,33l-.08.16a7.56,7.56,0,0,1-1.41-.87,2.15,2.15,0,0,1-.73-1.46.54.54,0,0,1,.18-.45c.45-.37,2,.5,3.2,1.79.12-.32.46-1,1.17-1h0a.71.71,0,0,1,.67.34,1.19,1.19,0,0,1,0,1.06c-.15.29-.3.67-.13.82a1.2,1.2,0,0,1,.18.89.47.47,0,0,1,.35.39c.13.46-.34,1.1-.63,1.41a1.48,1.48,0,0,1-.92.52"/><path class="cls-8" d="M6.37,32.53a3.51,3.51,0,0,0-1.18,2.6,2.34,2.34,0,0,1,1.18-2.6"/><path class="cls-8" d="M7.15,33.17a.09.09,0,0,1-.08,0,1.37,1.37,0,0,1-.1-.86.08.08,0,0,1,.11-.06.07.07,0,0,1,.06.1,1.17,1.17,0,0,0,.09.73.09.09,0,0,1,0,.12h0"/><path class="cls-83" d="M8.63,32.87a6.38,6.38,0,0,0-.22.86,6.44,6.44,0,0,1,.13-.88Z"/><path class="cls-8" d="M7.08,32.9c-.23.53-.57,1.16-.11,1.66H7s0,0,0,0a.88.88,0,0,1-.2-1.3,1.91,1.91,0,0,1,.31-.38s0,0,0,0"/><path class="cls-8" d="M6.63,34.18a.68.68,0,0,0-.38.38.75.75,0,0,1,.34-.46s0,0,.06,0a0,0,0,0,1,0,.07"/><path class="cls-83" d="M8.87,34.29a1.87,1.87,0,0,1-.75.8,1.88,1.88,0,0,0,.58-.84l.17,0"/><path class="cls-83" d="M7.26,36.14a1.51,1.51,0,0,0,.49-.21,1.7,1.7,0,0,1-.42.38l-.07-.17"/><path class="cls-8" d="M18.2,28.38c.27.11.51-1.3,1.14-2.37a14.21,14.21,0,0,1,1.37-1.81c.22-.33,0-1.16-.33-.77a11.67,11.67,0,0,0-1.31,2.16c-.36.85-1.06,2.71-.87,2.79"/><g class="cls-68"><g class="cls-84"><g class="cls-84"><path class="cls-34" d="M20.66,23.83c0,.19-.06.34-.13.33s-.12-.15-.12-.33.06-.34.13-.34.13.15.12.34"/></g></g></g><path class="cls-8" d="M20.45,23.87c-.08-.28.7-.21,1.65-.09s3,.18,3.19,1-.48,1-1,.61-.36-.86-1.71-1.21c-.88-.22-2.06,0-2.15-.31"/><path class="cls-8" d="M14.86,28.15c.29,0,0-1.4.14-2.63a13.85,13.85,0,0,1,.55-2.21c.08-.38-.42-1.07-.59-.57a10.93,10.93,0,0,0-.38,2.49c0,.92.07,2.92.28,2.92"/><g class="cls-68"><g class="cls-85"><g class="cls-86"><path class="cls-34" d="M15.37,23c.07.18.07.34,0,.36s-.17-.09-.24-.26-.07-.34,0-.36.17.09.24.26"/></g></g></g><path class="cls-8" d="M15.19,23.12c-.19-.23.56-.47,1.48-.73s2.8-1,3.33-.31-.06,1.09-.66.94-.67-.65-2.05-.45c-.9.14-1.91.78-2.1.55"/><path class="cls-8" d="M17.25,25.62c0,.65-.2,1.19-.47,1.19s-.49-.52-.5-1.18.2-1.18.47-1.19.5.53.5,1.18"/><path class="cls-8" d="M16.49,26c.24.41.28.85.08,1s-.57-.12-.81-.54-.28-.84-.08-1,.56.12.81.54"/><path class="cls-8" d="M18.34,26c-.41.73-1,1.15-1.42.94s-.35-1,.06-1.71,1-1.15,1.42-.94.35,1-.06,1.71"/><path class="cls-67" d="M17.3,26.42c1.17-.07,3.47.86,3.91,4.8A3,3,0,0,1,22.74,34c-.06,2.07-1.72,3.69-5.44,3.69S12,35.11,12,33.64a2.66,2.66,0,0,1,1.36-2.45s.29-4.55,4-4.77"/><g class="cls-68"><g class="cls-87"><g class="cls-87"><path class="cls-8" d="M17.69,37.1a6.5,6.5,0,0,1-5.65-3c.31,1.49,1.93,3.57,5.26,3.57s5.1-1.37,5.39-3.2a6,6,0,0,1-5,2.59"/></g></g></g><path class="cls-8" d="M21.21,31.75c-.16-2-.89-4.5-3.07-5-2.48-.55-3.88,1-4.48,3.23a10.08,10.08,0,0,0-.31,1.81,8.2,8.2,0,0,1,.14-1.85c.37-2,1.56-3.7,3.78-3.66,3,0,4.06,3,3.94,5.51"/><path class="cls-8" d="M21.22,31.21a3.21,3.21,0,0,1,1,4.64c-1.64,2.21-5,2.39-7.39,1.58l-.47-.2L13.89,37l-.28-.19a4,4,0,0,1-1.75-3.52,2.43,2.43,0,0,1,1.49-2.1s0,0,0,0a2.43,2.43,0,0,0-.92.88,3.3,3.3,0,0,0,.47,3.54,4.91,4.91,0,0,0,2,1.47,7.66,7.66,0,0,0,2.51.48A6.84,6.84,0,0,0,20,37.21,3.68,3.68,0,0,0,22.67,34a3,3,0,0,0-1.47-2.72s0,0,0,0"/><g class="cls-88"><g class="cls-89"><g class="cls-89"><path class="cls-34" d="M17.19,30.62c0,.92-.23,1.67-.51,1.67s-.51-.75-.51-1.67.23-1.68.51-1.68.51.75.51,1.68"/></g></g></g><path class="cls-8" d="M17.11,30.52c0,.85-.19,1.55-.43,1.55s-.43-.7-.43-1.55.19-1.54.43-1.54.43.69.43,1.54"/><g class="cls-88"><g class="cls-90"><g class="cls-91"><path class="cls-34" d="M19.79,30.62c0,.92-.23,1.67-.51,1.67s-.51-.75-.51-1.67.23-1.68.51-1.68.51.75.51,1.68"/></g></g></g><path class="cls-8" d="M19.71,30.52c0,.85-.19,1.55-.43,1.55s-.43-.7-.43-1.55.2-1.54.43-1.54.43.69.43,1.54"/><g class="cls-6"><g class="cls-92"><g class="cls-92"><path class="cls-34" d="M13.94,31.08a4.17,4.17,0,0,1,1.47-2.52c1.17-.76,2.41-1,2.26-1.38s-1.67-.29-2.45.6a5.54,5.54,0,0,0-1.28,3.3"/></g></g></g><path class="cls-8" d="M16,28.39h0a.07.07,0,0,1,0-.06c.17-.52.9-.42.91-.42s0,0,0,.05a.05.05,0,0,1-.05,0s-.67-.09-.81.36a.05.05,0,0,1,0,0"/><path class="cls-8" d="M19.47,28.09s0,0,0,0a.45.45,0,0,0-.29-.23.71.71,0,0,0-.43.14s0,0-.06,0a0,0,0,0,1,0-.06.65.65,0,0,1,.49-.15.5.5,0,0,1,.35.26,0,0,0,0,1,0,.07h0"/><path class="cls-8" d="M14.68,32.44a.59.59,0,0,0,.42.32,1.54,1.54,0,0,0,.3,0l.12,0h0a.5.5,0,0,1-.73,0,1,1,0,0,1-.13-.22Z"/><path class="cls-8" d="M15.1,32.8a4.47,4.47,0,0,0,3,1.25,6.26,6.26,0,0,0,2.07-.33c.11.08-.38.27-.63.61a2.39,2.39,0,0,0-.67,1c-.18.59-.73,1.53-1.54,1.47a2.6,2.6,0,0,1-2.07-2,8.59,8.59,0,0,1-.21-2"/><path class="cls-34" d="M16,33.76a6.43,6.43,0,0,0,3.39.45s-.13.61-1,.61-2.17-.47-2.4-1.06"/><path class="cls-93" d="M15.72,34.94c.08-.13.66-.12,1,.31a3.28,3.28,0,0,1,.59.86s.16-.07.11-.21-.53-.66-.5-.71a.8.8,0,0,1,.76.17c.28.26.48.54.44.75a.75.75,0,0,1-.81.51c-.5,0-1.8-1.34-1.58-1.68"/><g class="cls-6"><g class="cls-94"><g class="cls-95"><path class="cls-8" d="M16.6,33.94a3.31,3.31,0,0,0,1.72.5c.92,0,.9-.25.9-.25Z"/></g></g></g><path class="cls-96" d="M16.06,35.14c.16-.08.65.39.89.76s.36.44.48.35.21-.28,0-.57-.15-.37,0-.34.6.45.5.74a.65.65,0,0,1-.57.46,2.26,2.26,0,0,1-1.1-.79c-.31-.4-.33-.54-.2-.61"/><path class="cls-8" d="M16.83,37.12a.78.78,0,0,0,.84.06l.12-.06-.09.1a.6.6,0,0,1-.87-.1"/><g class="cls-6"><g class="cls-97"><g class="cls-98"><path class="cls-34" d="M15.61,32.14s-.14,0-.27,0-.21-.15-.19-.19.14,0,.27,0,.21.14.19.19"/></g></g></g><g class="cls-6"><g class="cls-99"><g class="cls-100"><path class="cls-34" d="M20.54,33c0,.07,0,.14-.14.17s-.19,0-.21-.06,0-.15.14-.18.19,0,.21.07"/></g></g></g><g class="cls-6"><g class="cls-101"><g class="cls-101"><path class="cls-34" d="M13.05,32.07c.22.09,0,1.35-.37,1.3s.14-1.4.37-1.3"/></g></g></g><g class="cls-68"><g class="cls-102"><g class="cls-102"><path class="cls-8" d="M19.84,33.51c.06-.07.17.07.34.06s.5-.31.54-.26-.23.41-.51.51-.45-.2-.37-.31"/></g></g></g><path class="cls-8" d="M15,43.13c-.14-.48-2.07-.5-2.8-.46s-1.6.35-1.6.95,1,.83,1.77.77,2.79-.69,2.63-1.26"/><g class="cls-22"><g class="cls-103"><g class="cls-103"><path class="cls-24" d="M11.41,43.29c0-.17.54-.42,1-.46s1.19,0,1.17.16-.82.15-1.09.19-1,.37-1.08.11"/></g></g></g><path class="cls-47" d="M10.48,43.57c0,.35.61,1.13,2.21.81s2.45-.84,2.38-1.25-1.36-.6-2.25-.64-2.33.1-2.34,1.08"/><g class="cls-27"><g class="cls-104"><g class="cls-105"><path class="cls-8" d="M15.07,43.24a9.41,9.41,0,0,1-2.7.91,3.16,3.16,0,0,1-1.87-.43s.29.92,2.05.69,2.52-.91,2.52-1.17"/></g></g></g><path class="cls-8" d="M14.33,43.94s0-.09-.05-.1h0a6.71,6.71,0,0,1-1.6.48A2.12,2.12,0,0,1,10.81,44a.67.67,0,0,1-.28-.47.79.79,0,0,1,.25-.56,1.33,1.33,0,0,1,.34-.22,4.07,4.07,0,0,1,1.7-.24,7,7,0,0,1,1.63.23c.06,0,.13-.05,0-.11a7.88,7.88,0,0,0-1.64-.23,3.28,3.28,0,0,0-2.12.48.88.88,0,0,0-.28.65.78.78,0,0,0,.32.56,2.27,2.27,0,0,0,2,.31,7.27,7.27,0,0,0,1.6-.49h0"/><path class="cls-8" d="M11.53,43.45a2.17,2.17,0,0,0-1.3-2.06c-1.1-.58-2.62-.57-2.93,0s.18,2.14,1.33,2.72,2.43.47,2.9-.62"/><g class="cls-22"><g class="cls-106"><g class="cls-107"><path class="cls-24" d="M8.66,41.57c0-.21,1.17-.21,1.65.2s.85.73.75.92-.81-.64-1.22-.81-1.13.13-1.18-.31"/></g></g></g><path class="cls-60" d="M9.87,41.13s-.4-.23-.5-.17a5.41,5.41,0,0,0-1.51,2.66c0,.14.24.3.24.3Z"/><path class="cls-8" d="M8.06,44a.88.88,0,0,1-.26-.33,5.31,5.31,0,0,1,.54-1.42,5.1,5.1,0,0,1,1-1.31c.12-.07.43.09.56.17l.06,0L8.11,44ZM9.4,41a4.89,4.89,0,0,0-1,1.26,5.31,5.31,0,0,0-.53,1.34.6.6,0,0,0,.17.22l1.71-2.68A.77.77,0,0,0,9.4,41"/><line class="cls-60" x1="9.59" y1="41.26" x2="9.34" y2="41.14"/><path class="cls-8" d="M9.59,41.27h0s0,0,0,0l-.25-.12a0,0,0,0,0,0,0,0,0,0,0,0,0,0l.26.12h0"/><line class="cls-60" x1="9.43" y1="41.47" x2="9.18" y2="41.35"/><path class="cls-8" d="M9.43,41.49h0s0,0,0,0l-.25-.12h0v0l.25.12h0"/><line class="cls-60" x1="9.25" y1="41.69" x2="9" y2="41.57"/><path class="cls-8" d="M9.26,41.7h0v0L9,41.55s0,0,0,0,0,0,0,0l.25.12h0"/><line class="cls-60" x1="9.08" y1="41.97" x2="8.82" y2="41.85"/><path class="cls-8" d="M9.08,42h0l-.25-.13h0s0,0,0,0l.25.12h0"/><line class="cls-60" x1="8.9" y1="42.23" x2="8.65" y2="42.11"/><path class="cls-8" d="M8.9,42.24s0,0,0,0,0,0,0,0l-.25-.12h0a0,0,0,0,0,0,0l.26.12h0"/><line class="cls-60" x1="8.75" y1="42.51" x2="8.5" y2="42.39"/><path class="cls-8" d="M8.75,42.52h0a0,0,0,0,0,0,0l-.26-.12s0,0,0,0,0,0,0,0l.25.12h0"/><line class="cls-60" x1="8.63" y1="42.83" x2="8.37" y2="42.71"/><path class="cls-8" d="M8.63,42.84h0s0,0,0,0l-.25-.12a0,0,0,0,0,0,0s0,0,0,0l.25.12h0"/><line class="cls-60" x1="8.47" y1="43.16" x2="8.22" y2="43.04"/><path class="cls-8" d="M8.47,43.17s0,0,0,0,0,0,0,0L8.22,43h0s0,0,0,0l.25.12h0"/><line class="cls-60" x1="8.28" y1="43.49" x2="8.02" y2="43.37"/><path class="cls-8" d="M8.28,43.51h0v0L8,43.36H8a0,0,0,0,0,0,0l.25.12h0"/><path class="cls-47" d="M10.67,41.44A1.59,1.59,0,0,0,10,40.9c-.27-.07-1,.84-1.25,1.38s-.9,1.6-.7,1.77.75.19,1,.33,2.17.45,2.58-.89c.31-1-.67-1.62-.95-2.05"/><g class="cls-27"><g class="cls-108"><g class="cls-109"><path class="cls-8" d="M11.39,43.93a3.08,3.08,0,0,1-2,.24c-.85-.29-1.35-.2-1.35-.65,0,0-.21.45-.08.53a6.18,6.18,0,0,0,.9.28,2.33,2.33,0,0,0,1,.19,1.92,1.92,0,0,0,1.53-.59"/></g></g></g><path class="cls-8" d="M10.24,44.55a1.65,1.65,0,0,0,1.24-.65.05.05,0,0,0,0-.08.05.05,0,0,0-.08,0c-.61.88-2.1.6-2.32.49a3,3,0,0,0-.5-.14A1.36,1.36,0,0,1,8,44c-.13-.11.33-1,.55-1.4l.16-.31c.29-.58,1-1.4,1.19-1.35a1.6,1.6,0,0,1,.68.52,3,3,0,0,0,.31.35,2,2,0,0,1,.69,1.23.06.06,0,0,0,.06.06s.06,0,.06-.06A2.09,2.09,0,0,0,11,41.74c-.12-.13-.22-.24-.29-.33a1.64,1.64,0,0,0-.76-.57c-.14,0-.37.13-.68.48a5.45,5.45,0,0,0-.63.93l-.16.31c-.43.8-.71,1.37-.53,1.54a1.51,1.51,0,0,0,.58.2,2.51,2.51,0,0,1,.48.14,2.67,2.67,0,0,0,1.22.11"/><path class="cls-63" d="M4.84,39.47a8.3,8.3,0,0,1-1.48-.69c-.61-.39-1.09-1.36-.76-1.7s1.91.23,3.38,1.5c0,0,.16-1.14,1-1.24s.88.8.73,1.19-.23.77,0,.93a1.18,1.18,0,0,1,.24.88s.26-.09.41.29-.17,1-.45,1.38-.77.84-1.21.45a1.64,1.64,0,0,1-2-.18,2.08,2.08,0,0,1-1.24.66c-.76.08-1.1-.36-1.15-.67s.4-.67,2-.89a2.08,2.08,0,0,1,0-.52A3.67,3.67,0,0,1,2,40.78c-1.12-.47-.82-1.26-.66-1.4s.52-.3,1.25,0a6.56,6.56,0,0,0,2,.55,2,2,0,0,1,.32-.49"/><path class="cls-64" d="M2.42,40.92s1.25-.1,1.37-.52-.4-.67-.4-.67L4.58,40l-.23.87a4.68,4.68,0,0,1-1.93.07"/><path class="cls-64" d="M3.9,39.07s.63.07.8-.33-.2-1.2-.2-1.2a6,6,0,0,1,1.42,1,2.32,2.32,0,0,0-1.08.94,6,6,0,0,1-.94-.4"/><path class="cls-64" d="M3.36,41.55s.71.16.7.55-.64.84-.64.84a1.89,1.89,0,0,0,1.24-.66,3.67,3.67,0,0,1-.25-.93,5.12,5.12,0,0,0-1.05.2"/><path class="cls-64" d="M7.24,37.34a.87.87,0,0,1,0,.65,2.42,2.42,0,0,0-.18,1.33c.12.43.44.63.38.89a.91.91,0,0,1-1,.75.83.83,0,0,0,.68.4,2.16,2.16,0,0,1-1,1.32A1.67,1.67,0,0,0,7.5,41.09a1.39,1.39,0,0,0,.39-1.26c-.2-.7-.48-.2-.29-1.09s.3-1-.36-1.4"/><path class="cls-64" d="M6.61,42.54a3.85,3.85,0,0,0,1.26-1.11c.29-.58.3-.84.21-1.08a.59.59,0,0,1,.28.72,2.08,2.08,0,0,1-1.08,1.51.81.81,0,0,1-.67,0"/><path class="cls-64" d="M5.28,41.89s.3-1.28.81-1.07a.93.93,0,0,1-.35-1,1.63,1.63,0,0,1-.29.57c-.17.15-.34.62-.17,1.49"/><path class="cls-8" d="M7.12,42.69h0a.56.56,0,0,1-.43-.12,1.74,1.74,0,0,1-2-.16A2.08,2.08,0,0,1,3.43,43c-.82.09-1.2-.39-1.25-.73A.37.37,0,0,1,2.27,42c.22-.3.87-.52,1.93-.67a2.92,2.92,0,0,1,0-.33,3.68,3.68,0,0,1-2.24-.12c-.64-.27-.83-.63-.87-.89a.76.76,0,0,1,.18-.66c.16-.15.56-.34,1.35,0a6.23,6.23,0,0,0,1.94.54l0,.18a6.42,6.42,0,0,1-2-.56c-.7-.31-1-.16-1.16,0a.59.59,0,0,0-.12.49c.05.31.31.57.76.76a3.51,3.51,0,0,0,2.24.07l.13,0v.14a2,2,0,0,0,0,.5v.09H4.31c-1.39.19-1.79.47-1.9.62a.23.23,0,0,0-.05.17c0,.28.36.66,1.05.59a2,2,0,0,0,1.18-.63l.06-.07.07.07a1.56,1.56,0,0,0,1.92.16l.05,0,0,0a.4.4,0,0,0,.35.12A1.2,1.2,0,0,0,7.82,42c.31-.42.56-1,.44-1.3S8,40.42,8,40.43l-.14,0,0-.14c0-.17,0-.67-.2-.8s-.23-.51,0-1a1.05,1.05,0,0,0-.08-.89A.55.55,0,0,0,7,37.43H7c-.76.09-.92,1.15-.92,1.17l0,.16-.13-.11c-1.47-1.27-3-1.79-3.26-1.51a.4.4,0,0,0-.07.33,2,2,0,0,0,.82,1.23,7.82,7.82,0,0,0,1.46.68l-.06.17a8,8,0,0,1-1.5-.7,2.1,2.1,0,0,1-.9-1.36A.59.59,0,0,1,2.53,37c.4-.42,2,.26,3.39,1.4.08-.33.34-1.08,1-1.17H7a.71.71,0,0,1,.7.25,1.2,1.2,0,0,1,.11,1.06c-.12.3-.22.69,0,.83a1.15,1.15,0,0,1,.29.85.5.5,0,0,1,.39.35c.19.44-.2,1.14-.45,1.48a1.49,1.49,0,0,1-.85.62"/><path class="cls-8" d="M5.33,38.9a3.54,3.54,0,0,0-.86,2.73,2.35,2.35,0,0,1,.86-2.73"/><path class="cls-8" d="M6.18,39.45a.09.09,0,0,1-.08,0,1.33,1.33,0,0,1-.21-.84.11.11,0,0,1,.1-.08.1.1,0,0,1,.08.1,1.1,1.1,0,0,0,.17.71.09.09,0,0,1,0,.13l-.05,0"/><path class="cls-83" d="M7.61,39a6.41,6.41,0,0,0-.11.88,5.42,5.42,0,0,1,0-.9Z"/><path class="cls-8" d="M6.08,39.19c-.17.55-.43,1.21.09,1.65h0s0,0,0,0a.88.88,0,0,1-.35-1.27,1.79,1.79,0,0,1,.25-.42l0,0"/><path class="cls-8" d="M5.78,40.51a.73.73,0,0,0-.33.42.79.79,0,0,1,.28-.5.06.06,0,0,1,.07,0,0,0,0,0,1,0,.07"/><path class="cls-83" d="M8,40.36a1.88,1.88,0,0,1-.65.87,1.75,1.75,0,0,0,.47-.9l.18,0"/><path class="cls-83" d="M6.64,42.38a1.33,1.33,0,0,0,.46-.27,1.39,1.39,0,0,1-.37.43l-.09-.16"/></g></g></svg>